<svg xmlns="http://www.w3.org/2000/svg" xmlns:xlink="http://www.w3.org/1999/xlink" width="1080" zoomAndPan="magnify" viewBox="0 0 810 809.999993" height="1080" preserveAspectRatio="xMidYMid meet" version="1.0"><defs><clipPath id="4bbef60bfb"><path d="M 66.328125 64.109375 L 743.578125 64.109375 L 743.578125 745.859375 L 66.328125 745.859375 Z M 66.328125 64.109375 " clip-rule="nonzero"/></clipPath></defs><path fill="#1a3428" d="M 174.316406 458.773438 L 228.183594 458.773438 C 235.652344 458.773438 241.707031 452.71875 241.707031 445.246094 L 241.707031 391.382812 C 241.707031 383.914062 235.652344 377.859375 228.183594 377.859375 L 174.316406 377.859375 C 166.847656 377.859375 160.792969 383.914062 160.792969 391.382812 L 160.792969 445.246094 C 160.792969 452.71875 166.847656 458.773438 174.316406 458.773438 Z M 174.316406 458.773438 " fill-opacity="1" fill-rule="nonzero"/><path fill="#1a3428" d="M 174.316406 570.132812 L 228.183594 570.132812 C 235.652344 570.132812 241.707031 564.078125 241.707031 556.609375 L 241.707031 502.742188 C 241.707031 495.273438 235.652344 489.21875 228.183594 489.21875 L 174.316406 489.21875 C 166.847656 489.21875 160.792969 495.273438 160.792969 502.742188 L 160.792969 556.609375 C 160.792969 564.078125 166.847656 570.132812 174.316406 570.132812 Z M 174.316406 570.132812 " fill-opacity="1" fill-rule="nonzero"/><path fill="#1a3428" d="M 174.316406 681.492188 L 228.183594 681.492188 C 235.652344 681.492188 241.707031 675.4375 241.707031 667.96875 L 241.707031 614.105469 C 241.707031 606.636719 235.652344 600.578125 228.183594 600.578125 L 174.316406 600.578125 C 166.847656 600.578125 160.792969 606.632812 160.792969 614.105469 L 160.792969 667.96875 C 160.792969 675.4375 166.847656 681.492188 174.316406 681.492188 Z M 174.316406 681.492188 " fill-opacity="1" fill-rule="nonzero"/><path fill="#1a3428" d="M 310.148438 458.773438 L 364.015625 458.773438 C 371.484375 458.773438 377.539062 452.71875 377.539062 445.246094 L 377.539062 391.382812 C 377.539062 383.914062 371.484375 377.859375 364.015625 377.859375 L 310.148438 377.859375 C 302.679688 377.859375 296.625 383.914062 296.625 391.382812 L 296.625 445.246094 C 296.625 452.71875 302.679688 458.773438 310.148438 458.773438 Z M 310.148438 458.773438 " fill-opacity="1" fill-rule="nonzero"/><path fill="#1a3428" d="M 310.148438 570.132812 L 364.015625 570.132812 C 371.484375 570.132812 377.539062 564.078125 377.539062 556.609375 L 377.539062 502.742188 C 377.539062 495.273438 371.484375 489.21875 364.015625 489.21875 L 310.148438 489.21875 C 302.679688 489.21875 296.625 495.273438 296.625 502.742188 L 296.625 556.609375 C 296.625 564.078125 302.679688 570.132812 310.148438 570.132812 Z M 310.148438 570.132812 " fill-opacity="1" fill-rule="nonzero"/><path fill="#1a3428" d="M 310.148438 681.492188 L 364.015625 681.492188 C 371.484375 681.492188 377.539062 675.4375 377.539062 667.96875 L 377.539062 614.105469 C 377.539062 606.636719 371.484375 600.578125 364.015625 600.578125 L 310.148438 600.578125 C 302.679688 600.578125 296.625 606.632812 296.625 614.105469 L 296.625 667.96875 C 296.625 675.4375 302.679688 681.492188 310.148438 681.492188 Z M 310.148438 681.492188 " fill-opacity="1" fill-rule="nonzero"/><path fill="#1a3428" d="M 445.984375 458.773438 L 499.847656 458.773438 C 507.316406 458.773438 513.375 452.71875 513.375 445.246094 L 513.375 391.382812 C 513.375 383.914062 507.320312 377.859375 499.847656 377.859375 L 445.984375 377.859375 C 438.515625 377.859375 432.460938 383.914062 432.460938 391.382812 L 432.460938 445.246094 C 432.457031 452.71875 438.511719 458.773438 445.984375 458.773438 Z M 445.984375 458.773438 " fill-opacity="1" fill-rule="nonzero"/><path fill="#1a3428" d="M 499.847656 600.578125 L 445.984375 600.578125 C 438.515625 600.578125 432.460938 606.632812 432.460938 614.105469 L 432.460938 667.96875 C 432.460938 675.4375 438.515625 681.492188 445.984375 681.492188 L 499.847656 681.492188 C 507.316406 681.492188 513.375 675.4375 513.375 667.96875 L 513.375 614.105469 C 513.371094 606.632812 507.316406 600.578125 499.847656 600.578125 Z M 499.847656 600.578125 " fill-opacity="1" fill-rule="nonzero"/><path fill="#1a3428" d="M 581.816406 458.773438 L 635.679688 458.773438 C 643.148438 458.773438 649.207031 452.71875 649.207031 445.246094 L 649.207031 391.382812 C 649.207031 383.914062 643.152344 377.859375 635.679688 377.859375 L 581.816406 377.859375 C 574.347656 377.859375 568.289062 383.914062 568.289062 391.382812 L 568.289062 445.246094 C 568.289062 452.71875 574.347656 458.773438 581.816406 458.773438 Z M 581.816406 458.773438 " fill-opacity="1" fill-rule="nonzero"/><path fill="#1a3428" d="M 581.816406 570.132812 L 635.679688 570.132812 C 643.148438 570.132812 649.207031 564.078125 649.207031 556.609375 L 649.207031 502.742188 C 649.207031 495.273438 643.152344 489.21875 635.679688 489.21875 L 581.816406 489.21875 C 574.347656 489.21875 568.289062 495.273438 568.289062 502.742188 L 568.289062 556.609375 C 568.289062 564.078125 574.347656 570.132812 581.816406 570.132812 Z M 581.816406 570.132812 " fill-opacity="1" fill-rule="nonzero"/><g clip-path="url(#4bbef60bfb)"><path fill="#1a3428" d="M 584.792969 64.144531 C 572.105469 64.144531 561.820312 74.429688 561.820312 87.117188 L 561.820312 133.277344 L 249.363281 133.277344 L 249.363281 87.117188 C 249.363281 74.429688 239.078125 64.144531 226.390625 64.144531 C 213.703125 64.144531 203.417969 74.429688 203.417969 87.117188 L 203.417969 133.277344 L 131.015625 133.277344 C 95.347656 133.277344 66.328125 162.296875 66.328125 197.964844 L 66.328125 681.160156 C 66.328125 716.828125 95.347656 745.847656 131.015625 745.847656 L 678.984375 745.847656 C 714.652344 745.847656 743.671875 716.828125 743.671875 681.160156 L 743.671875 197.964844 C 743.671875 162.296875 714.652344 133.277344 678.984375 133.277344 L 607.765625 133.277344 L 607.765625 87.117188 C 607.765625 74.429688 597.480469 64.144531 584.792969 64.144531 Z M 203.417969 166.230469 L 203.417969 194.753906 C 203.417969 207.441406 213.703125 217.726562 226.390625 217.726562 C 239.078125 217.726562 249.363281 207.441406 249.363281 194.753906 L 249.363281 166.230469 C 257.6875 172.945312 263.011719 183.226562 263.011719 194.753906 C 263.011719 214.980469 246.617188 231.378906 226.386719 231.378906 C 206.160156 231.378906 189.765625 214.980469 189.765625 194.753906 C 189.765625 183.226562 195.09375 172.945312 203.417969 166.230469 Z M 711.800781 681.160156 C 711.800781 699.253906 697.078125 713.976562 678.984375 713.976562 L 131.015625 713.976562 C 112.921875 713.976562 98.199219 699.253906 98.199219 681.160156 L 98.199219 345.375 L 711.800781 345.375 Z M 621.414062 194.753906 C 621.414062 214.980469 605.019531 231.378906 584.792969 231.378906 C 564.5625 231.378906 548.167969 214.980469 548.167969 194.753906 C 548.167969 183.226562 553.492188 172.945312 561.816406 166.230469 L 561.816406 194.75 C 561.816406 207.4375 572.101562 217.722656 584.789062 217.722656 C 597.476562 217.722656 607.761719 207.4375 607.761719 194.75 L 607.761719 166.230469 C 616.089844 172.945312 621.414062 183.226562 621.414062 194.753906 Z M 621.414062 194.753906 " fill-opacity="1" fill-rule="nonzero"/></g><path fill="#1a3428" d="M 468.652344 577.273438 L 532.839844 513.085938 C 539.066406 506.863281 539.066406 496.773438 532.839844 490.550781 C 526.617188 484.324219 516.527344 484.324219 510.304688 490.550781 L 468.652344 532.199219 L 451.925781 515.472656 C 445.707031 509.25 435.613281 509.25 429.390625 515.472656 C 423.167969 521.695312 423.167969 531.785156 429.390625 538.007812 Z M 468.652344 577.273438 " fill-opacity="1" fill-rule="nonzero"/></svg>