<svg xmlns="http://www.w3.org/2000/svg" xmlns:xlink="http://www.w3.org/1999/xlink" width="200" zoomAndPan="magnify" viewBox="0 0 150 149.999998" height="200" preserveAspectRatio="xMidYMid meet" version="1.0"><defs><clipPath id="d370b66d2a"><path d="M 3.175781 4.910156 L 147 4.910156 L 147 148.910156 L 3.175781 148.910156 Z M 3.175781 4.910156 " clip-rule="nonzero"/></clipPath><clipPath id="e418069bc0"><path d="M 1.050781 2.101562 L 148.800781 2.101562 L 148.800781 149.851562 L 1.050781 149.851562 Z M 1.050781 2.101562 " clip-rule="nonzero"/></clipPath><clipPath id="8990e41ab9"><path d="M 15 16.730469 L 135 16.730469 L 135 136.730469 L 15 136.730469 Z M 15 16.730469 " clip-rule="nonzero"/></clipPath></defs><path fill="#274236" d="M 98.933594 64.757812 C 98.933594 65.542969 98.894531 66.324219 98.820312 67.105469 C 98.742188 67.882812 98.628906 68.660156 98.472656 69.425781 C 98.320312 70.195312 98.132812 70.957031 97.902344 71.707031 C 97.675781 72.457031 97.414062 73.195312 97.113281 73.917969 C 96.8125 74.644531 96.476562 75.351562 96.109375 76.042969 C 95.738281 76.734375 95.335938 77.40625 94.898438 78.058594 C 94.464844 78.710938 93.996094 79.339844 93.5 79.945312 C 93.003906 80.550781 92.476562 81.128906 91.921875 81.683594 C 91.367188 82.238281 90.789062 82.765625 90.183594 83.261719 C 89.574219 83.761719 88.945312 84.226562 88.296875 84.660156 C 87.644531 85.097656 86.972656 85.5 86.28125 85.871094 C 85.589844 86.238281 84.878906 86.574219 84.15625 86.875 C 83.433594 87.175781 82.695312 87.4375 81.945312 87.664062 C 81.195312 87.894531 80.433594 88.082031 79.664062 88.238281 C 78.894531 88.390625 78.121094 88.503906 77.339844 88.582031 C 76.5625 88.65625 75.777344 88.695312 74.996094 88.695312 C 74.210938 88.695312 73.429688 88.65625 72.648438 88.582031 C 71.867188 88.503906 71.09375 88.390625 70.324219 88.238281 C 69.554688 88.082031 68.796875 87.894531 68.046875 87.664062 C 67.296875 87.4375 66.558594 87.175781 65.832031 86.875 C 65.109375 86.574219 64.402344 86.238281 63.710938 85.871094 C 63.019531 85.5 62.347656 85.097656 61.695312 84.660156 C 61.042969 84.226562 60.414062 83.761719 59.808594 83.261719 C 59.203125 82.765625 58.621094 82.238281 58.066406 81.683594 C 57.511719 81.128906 56.988281 80.550781 56.488281 79.945312 C 55.992188 79.339844 55.527344 78.710938 55.089844 78.058594 C 54.65625 77.40625 54.253906 76.734375 53.882812 76.042969 C 53.511719 75.351562 53.179688 74.644531 52.878906 73.917969 C 52.578125 73.195312 52.3125 72.457031 52.085938 71.707031 C 51.859375 70.957031 51.667969 70.195312 51.515625 69.425781 C 51.363281 68.660156 51.246094 67.882812 51.171875 67.105469 C 51.09375 66.324219 51.054688 65.542969 51.054688 64.757812 C 51.054688 63.972656 51.09375 63.191406 51.171875 62.410156 C 51.246094 61.628906 51.363281 60.855469 51.515625 60.085938 C 51.667969 59.316406 51.859375 58.558594 52.085938 57.808594 C 52.3125 57.058594 52.578125 56.320312 52.878906 55.597656 C 53.179688 54.871094 53.511719 54.164062 53.882812 53.472656 C 54.253906 52.78125 54.65625 52.109375 55.089844 51.457031 C 55.527344 50.804688 55.992188 50.175781 56.488281 49.570312 C 56.988281 48.964844 57.511719 48.382812 58.066406 47.828125 C 58.621094 47.273438 59.203125 46.75 59.808594 46.25 C 60.414062 45.753906 61.042969 45.289062 61.695312 44.851562 C 62.347656 44.417969 63.019531 44.015625 63.710938 43.644531 C 64.402344 43.273438 65.109375 42.941406 65.832031 42.640625 C 66.558594 42.339844 67.296875 42.074219 68.046875 41.847656 C 68.796875 41.621094 69.554688 41.429688 70.324219 41.277344 C 71.09375 41.125 71.867188 41.007812 72.648438 40.933594 C 73.429688 40.855469 74.210938 40.816406 74.996094 40.816406 C 75.777344 40.816406 76.5625 40.855469 77.339844 40.933594 C 78.121094 41.007812 78.894531 41.125 79.664062 41.277344 C 80.433594 41.429688 81.195312 41.621094 81.945312 41.847656 C 82.695312 42.074219 83.433594 42.339844 84.15625 42.640625 C 84.878906 42.941406 85.589844 43.273438 86.28125 43.644531 C 86.972656 44.015625 87.644531 44.417969 88.296875 44.851562 C 88.945312 45.289062 89.574219 45.753906 90.183594 46.25 C 90.789062 46.75 91.367188 47.273438 91.921875 47.828125 C 92.476562 48.382812 93.003906 48.964844 93.5 49.570312 C 93.996094 50.175781 94.464844 50.804688 94.898438 51.457031 C 95.335938 52.109375 95.738281 52.78125 96.109375 53.472656 C 96.476562 54.164062 96.8125 54.871094 97.113281 55.597656 C 97.414062 56.320312 97.675781 57.058594 97.902344 57.808594 C 98.132812 58.558594 98.320312 59.316406 98.472656 60.085938 C 98.628906 60.855469 98.742188 61.628906 98.820312 62.410156 C 98.894531 63.191406 98.933594 63.972656 98.933594 64.757812 Z M 98.933594 64.757812 " fill-opacity="1" fill-rule="nonzero"/><path fill="#274236" d="M 98.933594 94.679688 L 51.054688 94.679688 C 42.148438 94.679688 34.46875 99.601562 30.34375 106.824219 C 40.03125 121.152344 56.433594 130.589844 74.996094 130.589844 C 93.558594 130.589844 109.957031 121.152344 119.648438 106.824219 C 115.523438 99.601562 107.84375 94.679688 98.933594 94.679688 Z M 98.933594 94.679688 " fill-opacity="1" fill-rule="nonzero"/><g clip-path="url(#d370b66d2a)"><path fill="#e0fff0" d="M 74.996094 4.910156 C 35.332031 4.910156 3.175781 37.0625 3.175781 76.726562 C 3.175781 116.390625 35.332031 148.546875 74.996094 148.546875 C 114.65625 148.546875 146.8125 116.390625 146.8125 76.726562 C 146.8125 37.0625 114.65625 4.910156 74.996094 4.910156 Z M 74.996094 136.574219 C 41.996094 136.574219 15.144531 109.730469 15.144531 76.726562 C 15.144531 43.726562 41.996094 16.878906 74.996094 16.878906 C 107.992188 16.878906 134.84375 43.726562 134.84375 76.726562 C 134.84375 109.730469 107.992188 136.574219 74.996094 136.574219 Z M 74.996094 136.574219 " fill-opacity="1" fill-rule="nonzero"/></g><g clip-path="url(#e418069bc0)"><path fill="#1a3428" d="M 74.996094 149.992188 C 34.144531 149.992188 1.050781 116.671875 1.050781 76.046875 C 1.050781 35.421875 34.144531 2.101562 74.996094 2.101562 C 115.847656 2.101562 148.941406 35.195312 148.941406 76.046875 C 148.941406 116.898438 115.621094 149.992188 74.996094 149.992188 Z M 74.996094 6.667969 C 36.652344 6.667969 5.617188 37.707031 5.617188 76.046875 C 5.617188 114.390625 36.652344 145.429688 74.996094 145.429688 C 113.339844 145.429688 144.378906 114.390625 144.378906 76.046875 C 144.378906 37.707031 113.109375 6.667969 74.996094 6.667969 Z M 74.996094 6.667969 " fill-opacity="1" fill-rule="nonzero"/></g><g clip-path="url(#8990e41ab9)"><path fill="#d8f6e7" d="M 75 136.730469 C 41.851562 136.730469 15 109.695312 15 76.730469 C 15 43.769531 41.851562 16.730469 75 16.730469 C 108.148438 16.730469 135 43.582031 135 76.730469 C 135 109.878906 107.964844 136.730469 75 136.730469 Z M 75 20.433594 C 43.890625 20.433594 18.703125 45.621094 18.703125 76.730469 C 18.703125 107.84375 43.890625 133.027344 75 133.027344 C 106.109375 133.027344 131.296875 107.84375 131.296875 76.730469 C 131.296875 45.621094 105.925781 20.433594 75 20.433594 Z M 75 20.433594 " fill-opacity="1" fill-rule="nonzero"/></g></svg>