<svg xmlns="http://www.w3.org/2000/svg" xmlns:xlink="http://www.w3.org/1999/xlink" width="1080" zoomAndPan="magnify" viewBox="0 0 810 809.999993" height="1080" preserveAspectRatio="xMidYMid meet" version="1.0"><defs><clipPath id="503151806c"><path d="M 18 22.671875 L 792 22.671875 L 792 787.671875 L 18 787.671875 Z M 18 22.671875 " clip-rule="nonzero"/></clipPath><clipPath id="44c11522ce"><path d="M 14 19.179688 L 792 19.179688 L 792 787.179688 L 14 787.179688 Z M 14 19.179688 " clip-rule="nonzero"/></clipPath></defs><path fill="#1a3428" d="M 162.28125 520.914062 L 120.726562 520.914062 C 113.628906 520.914062 107.847656 526.675781 107.847656 533.777344 C 107.847656 540.875 113.628906 546.640625 120.726562 546.640625 L 162.28125 546.640625 C 169.378906 546.640625 175.160156 540.875 175.160156 533.777344 C 175.160156 526.675781 169.378906 520.914062 162.28125 520.914062 Z M 162.28125 520.914062 " fill-opacity="1" fill-rule="nonzero"/><path fill="#1a3428" d="M 223.9375 546.640625 L 265.527344 546.640625 C 272.625 546.640625 278.402344 540.875 278.402344 533.777344 C 278.402344 526.679688 272.625 520.914062 265.527344 520.914062 L 223.9375 520.914062 C 216.839844 520.914062 211.0625 526.675781 211.0625 533.777344 C 211.0625 540.875 216.839844 546.640625 223.9375 546.640625 Z M 223.9375 546.640625 " fill-opacity="1" fill-rule="nonzero"/><path fill="#1a3428" d="M 327.152344 546.640625 L 368.738281 546.640625 C 375.835938 546.640625 381.617188 540.875 381.617188 533.777344 C 381.617188 526.679688 375.835938 520.914062 368.738281 520.914062 L 327.152344 520.914062 C 320.054688 520.914062 314.273438 526.675781 314.273438 533.777344 C 314.273438 540.875 320.050781 546.640625 327.152344 546.640625 Z M 327.152344 546.640625 " fill-opacity="1" fill-rule="nonzero"/><path fill="#1a3428" d="M 430.363281 546.640625 L 471.953125 546.640625 C 479.050781 546.640625 484.828125 540.875 484.828125 533.777344 C 484.828125 526.679688 479.050781 520.914062 471.953125 520.914062 L 430.363281 520.914062 C 423.265625 520.914062 417.488281 526.675781 417.488281 533.777344 C 417.488281 540.875 423.265625 546.640625 430.363281 546.640625 Z M 430.363281 546.640625 " fill-opacity="1" fill-rule="nonzero"/><path fill="#1a3428" d="M 533.609375 546.640625 L 575.164062 546.640625 C 582.261719 546.640625 588.042969 540.875 588.042969 533.777344 C 588.042969 526.679688 582.261719 520.914062 575.164062 520.914062 L 533.609375 520.914062 C 526.511719 520.914062 520.730469 526.675781 520.730469 533.777344 C 520.730469 540.875 526.511719 546.640625 533.609375 546.640625 Z M 533.609375 546.640625 " fill-opacity="1" fill-rule="nonzero"/><path fill="#1a3428" d="M 678.378906 546.640625 C 685.476562 546.640625 691.253906 540.875 691.253906 533.777344 C 691.253906 526.679688 685.476562 520.914062 678.378906 520.914062 L 636.824219 520.914062 C 629.726562 520.914062 623.945312 526.675781 623.945312 533.777344 C 623.945312 540.875 629.726562 546.640625 636.824219 546.640625 Z M 678.378906 546.640625 " fill-opacity="1" fill-rule="nonzero"/><path fill="#1a3428" d="M 150 561.273438 L 106.246094 561.273438 C 99.148438 561.273438 93.367188 567.039062 93.367188 574.136719 C 93.367188 581.234375 99.148438 587 106.246094 587 L 150 587 C 157.097656 587 162.878906 581.238281 162.878906 574.136719 C 162.878906 567.039062 157.097656 561.273438 150 561.273438 Z M 150 561.273438 " fill-opacity="1" fill-rule="nonzero"/><path fill="#1a3428" d="M 214.828125 587 L 258.550781 587 C 265.648438 587 271.429688 581.238281 271.429688 574.136719 C 271.429688 567.039062 265.648438 561.273438 258.550781 561.273438 L 214.828125 561.273438 C 207.730469 561.273438 201.953125 567.039062 201.953125 574.136719 C 201.953125 581.238281 207.730469 587 214.828125 587 Z M 214.828125 587 " fill-opacity="1" fill-rule="nonzero"/><path fill="#1a3428" d="M 323.414062 587 L 367.136719 587 C 374.234375 587 380.015625 581.238281 380.015625 574.136719 C 380.015625 567.039062 374.234375 561.273438 367.136719 561.273438 L 323.414062 561.273438 C 316.316406 561.273438 310.535156 567.039062 310.535156 574.136719 C 310.535156 581.238281 316.3125 587 323.414062 587 Z M 323.414062 587 " fill-opacity="1" fill-rule="nonzero"/><path fill="#1a3428" d="M 475.722656 561.273438 L 431.96875 561.273438 C 424.867188 561.273438 419.089844 567.039062 419.089844 574.136719 C 419.089844 581.234375 424.867188 587 431.96875 587 L 475.722656 587 C 482.820312 587 488.597656 581.238281 488.597656 574.136719 C 488.597656 567.039062 482.820312 561.273438 475.722656 561.273438 Z M 475.722656 561.273438 " fill-opacity="1" fill-rule="nonzero"/><path fill="#1a3428" d="M 584.273438 587 C 591.371094 587 597.152344 581.238281 597.152344 574.136719 C 597.152344 567.039062 591.371094 561.273438 584.273438 561.273438 L 540.550781 561.273438 C 533.453125 561.273438 527.671875 567.039062 527.671875 574.136719 C 527.671875 581.234375 533.453125 587 540.550781 587 Z M 584.273438 587 " fill-opacity="1" fill-rule="nonzero"/><path fill="#1a3428" d="M 705.734375 574.136719 C 705.734375 567.039062 699.957031 561.273438 692.859375 561.273438 L 649.136719 561.273438 C 642.039062 561.273438 636.257812 567.039062 636.257812 574.136719 C 636.257812 581.234375 642.039062 587 649.136719 587 L 692.859375 587 C 699.957031 587 705.734375 581.238281 705.734375 574.136719 Z M 705.734375 574.136719 " fill-opacity="1" fill-rule="nonzero"/><path fill="#1a3428" d="M 136.335938 606.035156 L 90.226562 606.035156 C 83.128906 606.035156 77.347656 611.796875 77.347656 618.898438 C 77.347656 625.996094 83.128906 631.757812 90.226562 631.757812 L 136.335938 631.757812 C 143.433594 631.757812 149.214844 625.996094 149.214844 618.898438 C 149.214844 611.796875 143.433594 606.035156 136.335938 606.035156 Z M 136.335938 606.035156 " fill-opacity="1" fill-rule="nonzero"/><path fill="#1a3428" d="M 263.734375 618.898438 C 263.734375 611.796875 257.953125 606.035156 250.855469 606.035156 L 204.714844 606.035156 C 197.617188 606.035156 191.835938 611.796875 191.835938 618.898438 C 191.835938 625.996094 197.617188 631.757812 204.714844 631.757812 L 250.855469 631.757812 C 257.957031 631.757812 263.734375 625.996094 263.734375 618.898438 Z M 263.734375 618.898438 " fill-opacity="1" fill-rule="nonzero"/><path fill="#1a3428" d="M 319.234375 631.757812 L 365.347656 631.757812 C 372.445312 631.757812 378.222656 625.996094 378.222656 618.898438 C 378.222656 611.796875 372.445312 606.035156 365.347656 606.035156 L 319.234375 606.035156 C 312.136719 606.035156 306.359375 611.796875 306.359375 618.898438 C 306.359375 625.996094 312.136719 631.757812 319.234375 631.757812 Z M 319.234375 631.757812 " fill-opacity="1" fill-rule="nonzero"/><path fill="#1a3428" d="M 433.757812 606.035156 C 426.660156 606.035156 420.878906 611.796875 420.878906 618.898438 C 420.878906 625.996094 426.660156 631.757812 433.757812 631.757812 L 479.867188 631.757812 C 486.964844 631.757812 492.746094 625.996094 492.746094 618.898438 C 492.746094 611.796875 486.964844 606.035156 479.867188 606.035156 Z M 433.757812 606.035156 " fill-opacity="1" fill-rule="nonzero"/><path fill="#1a3428" d="M 594.386719 606.035156 L 548.246094 606.035156 C 541.148438 606.035156 535.367188 611.796875 535.367188 618.898438 C 535.367188 625.996094 541.148438 631.757812 548.246094 631.757812 L 594.386719 631.757812 C 601.484375 631.757812 607.265625 625.996094 607.265625 618.898438 C 607.265625 611.796875 601.484375 606.035156 594.386719 606.035156 Z M 594.386719 606.035156 " fill-opacity="1" fill-rule="nonzero"/><path fill="#1a3428" d="M 649.890625 618.898438 C 649.890625 625.996094 655.667969 631.757812 662.765625 631.757812 L 708.910156 631.757812 C 716.007812 631.757812 721.785156 625.996094 721.785156 618.898438 C 721.785156 611.796875 716.007812 606.035156 708.910156 606.035156 L 662.765625 606.035156 C 655.667969 606.035156 649.890625 611.796875 649.890625 618.898438 Z M 649.890625 618.898438 " fill-opacity="1" fill-rule="nonzero"/><path fill="#1a3428" d="M 512.5 661.363281 L 265.523438 661.363281 C 258.425781 661.363281 252.644531 667.125 252.644531 674.226562 C 252.644531 681.324219 258.425781 687.089844 265.523438 687.089844 L 512.5 687.089844 C 519.597656 687.089844 525.378906 681.324219 525.378906 674.226562 C 525.378906 667.125 519.601562 661.363281 512.5 661.363281 Z M 512.5 661.363281 " fill-opacity="1" fill-rule="nonzero"/><path fill="#1a3428" d="M 566.652344 247.082031 L 540.957031 239.890625 C 533.074219 237.691406 526.699219 232.101562 523.179688 223.824219 C 519.945312 216.316406 520.289062 207.851562 524.152344 200.628906 L 524.152344 200.613281 L 536.6875 177.023438 C 539.640625 171.433594 538.101562 164.492188 533.011719 160.691406 L 486.617188 125.964844 C 481.5625 122.199219 474.496094 122.636719 469.941406 127.082031 L 452.320312 144.308594 C 446.035156 150.433594 437.304688 153.292969 427.191406 152.179688 C 419.214844 151.222656 412.207031 146.792969 407.96875 139.992188 L 394.242188 118.019531 C 390.914062 112.648438 384.066406 110.542969 378.285156 113.011719 L 325.011719 135.828125 C 319.171875 138.328125 316.03125 144.703125 317.601562 150.859375 L 324.039062 175.921875 C 326.019531 183.710938 324.417969 191.847656 318.636719 199.496094 C 313.390625 206.5 305.351562 210.695312 296.589844 210.992188 L 271.964844 211.855469 C 265.621094 212.074219 260.375 216.898438 259.621094 223.195312 L 252.742188 280.738281 C 251.988281 287.035156 255.945312 292.941406 262.039062 294.652344 L 285.722656 301.28125 C 294.167969 303.652344 301.015625 309.636719 304.628906 318.101562 C 308.085938 326.171875 307.738281 335.25 303.59375 342.992188 L 292.035156 364.695312 C 289.050781 370.300781 290.621094 377.246094 295.710938 381.042969 L 342.101562 415.769531 C 347.191406 419.554688 354.257812 419.128906 358.8125 414.65625 L 377.28125 396.578125 C 383.0625 390.972656 391.417969 388.300781 400.398438 389.445312 C 409.070312 390.453125 416.480469 394.929688 420.753906 401.742188 L 434.480469 423.714844 C 436.867188 427.578125 441.074219 429.761719 445.378906 429.761719 C 447.074219 429.761719 448.804688 429.433594 450.4375 428.722656 L 503.707031 405.90625 C 509.550781 403.40625 512.691406 397.03125 511.121094 390.890625 L 504.996094 366.925781 C 502.796875 358.445312 504.585938 349.570312 510.085938 342.238281 C 515.328125 335.234375 523.371094 331.039062 532.132812 330.742188 L 556.757812 329.878906 C 563.101562 329.660156 568.347656 324.835938 569.101562 318.539062 L 575.980469 260.996094 C 576.734375 254.699219 572.777344 248.792969 566.652344 247.082031 Z M 544.851562 304.546875 L 531.253906 305.015625 C 514.667969 305.597656 499.433594 313.527344 489.257812 327.097656 C 479.300781 340.398438 475.941406 357.25 480.054688 373.316406 L 483.449219 386.589844 L 450.4375 400.738281 L 442.585938 388.128906 C 434.167969 374.636719 419.875 365.792969 403.039062 363.847656 C 400.746094 363.566406 398.488281 363.4375 396.222656 363.4375 C 382.246094 363.4375 369.085938 368.621094 359.285156 378.167969 L 348.667969 388.550781 L 319.957031 367.050781 L 326.335938 355.085938 C 334.125 340.402344 334.847656 323.203125 328.125 307.59375 C 321.59375 292.3125 308.652344 280.972656 292.664062 276.496094 L 279.597656 272.855469 L 283.871094 237.1875 L 297.472656 236.71875 C 314.054688 236.136719 329.289062 228.203125 340.15625 213.691406 C 349.675781 201.050781 352.878906 184.96875 348.984375 169.546875 L 345.277344 155.144531 L 378.289062 140.996094 L 386.171875 153.621094 C 394.558594 167.066406 408.410156 175.84375 425.71875 177.902344 C 442.363281 179.800781 458.449219 174.289062 470.289062 162.699219 L 480.058594 153.183594 L 508.796875 174.683594 L 501.417969 188.535156 C 493.910156 202.683594 493.21875 219.238281 499.847656 234.722656 C 506.128906 249.4375 518.597656 260.351562 534.019531 264.671875 L 549.128906 268.894531 Z M 544.851562 304.546875 " fill-opacity="1" fill-rule="nonzero"/><path fill="#1a3428" d="M 482.316406 241.757812 C 466.265625 204.285156 422.699219 186.871094 385.261719 202.902344 C 367.105469 210.679688 353.066406 225.0625 345.714844 243.390625 C 338.394531 261.71875 338.648438 281.820312 346.40625 299.960938 C 354.195312 318.117188 368.550781 332.15625 386.894531 339.503906 C 395.78125 343.054688 405.078125 344.832031 414.378906 344.832031 C 424.273438 344.832031 434.136719 342.835938 443.464844 338.832031 C 480.933594 322.78125 498.367188 279.246094 482.347656 241.773438 C 482.347656 241.773438 482.347656 241.773438 482.316406 241.757812 Z M 433.347656 315.179688 C 421.539062 320.234375 408.441406 320.359375 396.441406 315.617188 C 384.507812 310.828125 375.148438 301.671875 370.058594 289.832031 C 365 278.003906 364.84375 264.90625 369.617188 252.957031 C 374.394531 241.003906 383.566406 231.628906 395.375 226.554688 C 401.5625 223.917969 407.96875 222.660156 414.28125 222.660156 C 433.003906 222.660156 450.84375 233.621094 458.664062 251.886719 C 469.125 276.324219 457.753906 304.71875 433.347656 315.179688 Z M 433.347656 315.179688 " fill-opacity="1" fill-rule="nonzero"/><g clip-path="url(#503151806c)"><path fill="#1a3428" d="M 789.097656 165.039062 C 788.71875 158.710938 783.789062 153.589844 777.476562 152.992188 L 758.09375 151.140625 C 753.226562 150.671875 748.859375 148.046875 745.84375 143.460938 C 743.144531 139.394531 742.484375 134.367188 743.960938 129.6875 L 749.929688 111.171875 C 751.875 105.140625 749.113281 98.578125 743.457031 95.734375 L 730.296875 89.125 L 730.296875 52.167969 C 730.296875 35.945312 717.074219 22.734375 700.863281 22.734375 L 98.269531 22.734375 C 82.03125 22.734375 68.804688 35.941406 68.804688 52.167969 L 68.804688 479.78125 L 18.359375 715.136719 C 18.273438 715.542969 18.421875 715.945312 18.378906 716.355469 C 18.316406 716.867188 18.078125 717.3125 18.078125 717.839844 L 18.078125 726.773438 C 18.078125 760.226562 45.308594 787.429688 78.761719 787.429688 L 720.371094 787.429688 C 753.824219 787.429688 781.023438 760.226562 781.023438 726.773438 L 781.023438 717.839844 C 781.023438 717.3125 780.785156 716.859375 780.722656 716.351562 C 780.679688 715.941406 780.828125 715.542969 780.742188 715.136719 L 730.296875 479.78125 L 730.296875 297.179688 L 754.324219 281.367188 C 759.632812 277.878906 761.578125 271.046875 758.972656 265.285156 L 751.46875 248.890625 C 749.269531 244.054688 749.363281 238.554688 751.90625 233.578125 C 754.292969 228.804688 758.660156 225.425781 763.84375 224.3125 L 781.402344 220.527344 C 787.621094 219.191406 791.921875 213.539062 791.546875 207.195312 Z M 94.5625 52.167969 C 94.5625 50.125 96.226562 48.460938 98.269531 48.460938 L 700.867188 48.460938 C 702.910156 48.460938 704.542969 50.125 704.542969 52.167969 L 704.542969 76.660156 C 699.109375 74.585938 692.921875 76.007812 689.464844 80.828125 L 679.070312 95.449219 C 675.960938 99.800781 671.121094 102.46875 664.683594 102.847656 C 659.847656 103.128906 655.355469 101.277344 652.152344 97.742188 L 639.492188 83.75 C 635.25 79.054688 628.183594 78.207031 622.875 81.644531 L 587.601562 104.855469 C 582.296875 108.34375 580.316406 115.175781 582.984375 120.953125 L 590.804688 138.085938 C 592.785156 142.453125 592.691406 147.398438 590.019531 152.695312 C 587.632812 157.4375 583.300781 160.796875 578.085938 161.914062 L 560.527344 165.699219 C 554.308594 167.03125 550.003906 172.703125 550.382812 179.03125 L 552.863281 221.183594 C 553.242188 227.511719 558.171875 232.632812 564.484375 233.226562 L 582.328125 234.957031 C 587.632812 235.441406 592.347656 238.300781 595.457031 243.027344 C 598.375 247.472656 599.132812 252.9375 597.5 258.011719 L 592 275.066406 C 590.054688 281.097656 592.816406 287.664062 598.472656 290.503906 L 636.226562 309.429688 C 638.078125 310.355469 640.058594 310.792969 642.007812 310.792969 C 646.058594 310.792969 650.015625 308.878906 652.496094 305.390625 L 663.429688 290.03125 C 666.191406 286.152344 670.808594 283.75 676.402344 283.421875 C 681.960938 282.980469 686.609375 284.945312 689.78125 288.476562 L 702.441406 302.46875 C 703.007812 303.101562 703.890625 303.078125 704.542969 303.570312 L 704.542969 468.300781 L 94.5625 468.300781 Z M 720.371094 761.703125 L 78.761719 761.703125 C 60.824219 761.703125 46 748.117188 44.050781 730.699219 L 755.046875 730.699219 C 753.101562 748.117188 738.308594 761.703125 720.371094 761.703125 Z M 46.882812 704.976562 L 92.082031 494.027344 L 707.023438 494.027344 L 752.222656 704.976562 Z M 758.441406 199.152344 C 745.625 201.914062 734.851562 210.222656 728.789062 222.222656 C 722.851562 233.984375 722.601562 247.617188 728.066406 259.582031 L 730.988281 265.941406 L 714.121094 277.03125 L 708.875 271.203125 C 700.363281 261.84375 687.484375 256.972656 674.574219 257.742188 C 661.445312 258.527344 649.730469 264.859375 642.441406 275.113281 L 637.917969 281.492188 L 619.890625 272.460938 L 621.992188 265.910156 C 626.046875 253.347656 624.191406 239.824219 616.78125 228.628906 C 609.554688 217.601562 597.871094 210.566406 584.742188 209.339844 L 577.894531 208.683594 L 576.730469 188.53125 L 583.484375 187.070312 C 596.363281 184.308594 607.105469 175.984375 613.542969 163.230469 C 619.199219 151.972656 619.449219 138.9375 614.203125 127.410156 L 610.964844 120.277344 L 627.800781 109.191406 L 633.078125 115.015625 C 641.527344 124.359375 653.402344 129.074219 667.378906 128.476562 C 680.445312 127.691406 692.347656 121.09375 700.011719 110.382812 L 704.035156 104.730469 L 722.03125 113.773438 L 719.457031 121.800781 C 719.457031 121.800781 719.457031 121.816406 719.457031 121.832031 C 715.5625 133.972656 717.351562 147.007812 724.671875 158.109375 C 731.675781 168.742188 742.980469 175.542969 755.640625 176.734375 L 764.027344 177.550781 L 765.222656 197.683594 Z M 758.441406 199.152344 " fill-opacity="1" fill-rule="nonzero"/></g><path fill="#1a3428" d="M 681.863281 140.253906 C 667.664062 137.367188 653.3125 140.113281 641.3125 148.03125 C 616.46875 164.378906 609.527344 197.925781 625.890625 222.785156 C 636.222656 238.519531 653.46875 247.066406 671.058594 247.066406 C 681.234375 247.066406 691.539062 244.191406 700.648438 238.191406 C 725.523438 221.8125 732.402344 188.265625 716.039062 163.421875 C 708.121094 151.390625 695.964844 143.160156 681.863281 140.253906 Z M 686.511719 216.691406 C 673.570312 225.316406 655.980469 221.703125 647.375 208.652344 C 638.832031 195.632812 642.445312 178.074219 655.449219 169.515625 C 660.128906 166.453125 665.4375 164.867188 670.902344 164.867188 C 672.816406 164.867188 674.765625 165.054688 676.683594 165.449219 C 684.0625 166.972656 690.410156 171.273438 694.554688 177.570312 L 694.554688 177.585938 C 703.128906 190.574219 699.515625 208.132812 686.511719 216.691406 Z M 686.511719 216.691406 " fill-opacity="1" fill-rule="nonzero"/><path fill="#1a3428" d="M 159.40625 519.699219 L 117.660156 519.699219 C 110.53125 519.699219 104.722656 525.488281 104.722656 532.621094 C 104.722656 539.75 110.53125 545.542969 117.660156 545.542969 L 159.40625 545.542969 C 166.535156 545.542969 172.339844 539.753906 172.339844 532.621094 C 172.339844 525.488281 166.535156 519.699219 159.40625 519.699219 Z M 159.40625 519.699219 " fill-opacity="1" fill-rule="nonzero"/><path fill="#1a3428" d="M 221.34375 545.542969 L 263.121094 545.542969 C 270.253906 545.542969 276.058594 539.753906 276.058594 532.621094 C 276.058594 525.488281 270.253906 519.699219 263.121094 519.699219 L 221.34375 519.699219 C 214.214844 519.699219 208.40625 525.488281 208.40625 532.621094 C 208.40625 539.75 214.210938 545.542969 221.34375 545.542969 Z M 221.34375 545.542969 " fill-opacity="1" fill-rule="nonzero"/><path fill="#1a3428" d="M 325.027344 545.542969 L 366.804688 545.542969 C 373.9375 545.542969 379.742188 539.753906 379.742188 532.621094 C 379.742188 525.488281 373.9375 519.699219 366.804688 519.699219 L 325.027344 519.699219 C 317.898438 519.699219 312.089844 525.488281 312.089844 532.621094 C 312.089844 539.75 317.894531 545.542969 325.027344 545.542969 Z M 325.027344 545.542969 " fill-opacity="1" fill-rule="nonzero"/><path fill="#1a3428" d="M 428.710938 545.542969 L 470.488281 545.542969 C 477.621094 545.542969 483.425781 539.753906 483.425781 532.621094 C 483.425781 525.488281 477.621094 519.699219 470.488281 519.699219 L 428.710938 519.699219 C 421.582031 519.699219 415.777344 525.488281 415.777344 532.621094 C 415.777344 539.75 421.582031 545.542969 428.710938 545.542969 Z M 428.710938 545.542969 " fill-opacity="1" fill-rule="nonzero"/><path fill="#1a3428" d="M 532.429688 545.542969 L 574.171875 545.542969 C 581.304688 545.542969 587.109375 539.753906 587.109375 532.621094 C 587.109375 525.488281 581.304688 519.699219 574.171875 519.699219 L 532.429688 519.699219 C 525.296875 519.699219 519.492188 525.488281 519.492188 532.621094 C 519.492188 539.75 525.296875 545.542969 532.429688 545.542969 Z M 532.429688 545.542969 " fill-opacity="1" fill-rule="nonzero"/><path fill="#1a3428" d="M 677.859375 545.542969 C 684.988281 545.542969 690.796875 539.753906 690.796875 532.621094 C 690.796875 525.488281 684.988281 519.699219 677.859375 519.699219 L 636.113281 519.699219 C 628.984375 519.699219 623.175781 525.488281 623.175781 532.621094 C 623.175781 539.75 628.984375 545.542969 636.113281 545.542969 Z M 677.859375 545.542969 " fill-opacity="1" fill-rule="nonzero"/><path fill="#1a3428" d="M 147.066406 560.246094 L 103.113281 560.246094 C 95.984375 560.246094 90.175781 566.035156 90.175781 573.164062 C 90.175781 580.296875 95.984375 586.085938 103.113281 586.085938 L 147.066406 586.085938 C 154.199219 586.085938 160.003906 580.296875 160.003906 573.164062 C 160.003906 566.035156 154.199219 560.246094 147.066406 560.246094 Z M 147.066406 560.246094 " fill-opacity="1" fill-rule="nonzero"/><path fill="#1a3428" d="M 212.195312 586.085938 L 256.117188 586.085938 C 263.246094 586.085938 269.054688 580.296875 269.054688 573.164062 C 269.054688 566.035156 263.246094 560.246094 256.117188 560.246094 L 212.195312 560.246094 C 205.0625 560.246094 199.257812 566.035156 199.257812 573.164062 C 199.257812 580.296875 205.0625 586.085938 212.195312 586.085938 Z M 212.195312 586.085938 " fill-opacity="1" fill-rule="nonzero"/><path fill="#1a3428" d="M 321.273438 586.085938 L 365.195312 586.085938 C 372.328125 586.085938 378.132812 580.296875 378.132812 573.164062 C 378.132812 566.035156 372.328125 560.246094 365.195312 560.246094 L 321.273438 560.246094 C 314.144531 560.246094 308.335938 566.035156 308.335938 573.164062 C 308.335938 580.296875 314.140625 586.085938 321.273438 586.085938 Z M 321.273438 586.085938 " fill-opacity="1" fill-rule="nonzero"/><path fill="#1a3428" d="M 474.277344 560.246094 L 430.324219 560.246094 C 423.191406 560.246094 417.386719 566.035156 417.386719 573.164062 C 417.386719 580.296875 423.191406 586.085938 430.324219 586.085938 L 474.277344 586.085938 C 481.40625 586.085938 487.214844 580.296875 487.214844 573.164062 C 487.214844 566.035156 481.40625 560.246094 474.277344 560.246094 Z M 474.277344 560.246094 " fill-opacity="1" fill-rule="nonzero"/><path fill="#1a3428" d="M 583.324219 586.085938 C 590.457031 586.085938 596.261719 580.296875 596.261719 573.164062 C 596.261719 566.035156 590.457031 560.246094 583.324219 560.246094 L 539.402344 560.246094 C 532.273438 560.246094 526.464844 566.035156 526.464844 573.164062 C 526.464844 580.296875 532.273438 586.085938 539.402344 586.085938 Z M 583.324219 586.085938 " fill-opacity="1" fill-rule="nonzero"/><path fill="#1a3428" d="M 705.34375 573.164062 C 705.34375 566.035156 699.535156 560.246094 692.40625 560.246094 L 648.484375 560.246094 C 641.351562 560.246094 635.546875 566.035156 635.546875 573.164062 C 635.546875 580.296875 641.351562 586.085938 648.484375 586.085938 L 692.40625 586.085938 C 699.535156 586.085938 705.34375 580.296875 705.34375 573.164062 Z M 705.34375 573.164062 " fill-opacity="1" fill-rule="nonzero"/><path fill="#1a3428" d="M 133.339844 605.207031 L 87.019531 605.207031 C 79.890625 605.207031 74.085938 610.996094 74.085938 618.128906 C 74.085938 625.261719 79.890625 631.050781 87.019531 631.050781 L 133.339844 631.050781 C 140.472656 631.050781 146.277344 625.261719 146.277344 618.128906 C 146.277344 610.996094 140.472656 605.207031 133.339844 605.207031 Z M 133.339844 605.207031 " fill-opacity="1" fill-rule="nonzero"/><path fill="#1a3428" d="M 261.320312 618.128906 C 261.320312 611 255.515625 605.207031 248.382812 605.207031 L 202.03125 605.207031 C 194.902344 605.207031 189.09375 610.996094 189.09375 618.128906 C 189.09375 625.261719 194.902344 631.050781 202.03125 631.050781 L 248.382812 631.050781 C 255.515625 631.050781 261.320312 625.261719 261.320312 618.128906 Z M 261.320312 618.128906 " fill-opacity="1" fill-rule="nonzero"/><path fill="#1a3428" d="M 317.078125 631.050781 L 363.398438 631.050781 C 370.527344 631.050781 376.335938 625.261719 376.335938 618.128906 C 376.335938 610.996094 370.527344 605.207031 363.398438 605.207031 L 317.078125 605.207031 C 309.945312 605.207031 304.140625 610.996094 304.140625 618.128906 C 304.140625 625.261719 309.945312 631.050781 317.078125 631.050781 Z M 317.078125 631.050781 " fill-opacity="1" fill-rule="nonzero"/><path fill="#1a3428" d="M 432.121094 605.207031 C 424.992188 605.207031 419.183594 610.996094 419.183594 618.128906 C 419.183594 625.261719 424.992188 631.050781 432.121094 631.050781 L 478.441406 631.050781 C 485.570312 631.050781 491.378906 625.261719 491.378906 618.128906 C 491.378906 610.996094 485.570312 605.207031 478.441406 605.207031 Z M 432.121094 605.207031 " fill-opacity="1" fill-rule="nonzero"/><path fill="#1a3428" d="M 593.484375 605.207031 L 547.132812 605.207031 C 540.003906 605.207031 534.195312 610.996094 534.195312 618.128906 C 534.195312 625.261719 540.003906 631.050781 547.132812 631.050781 L 593.484375 631.050781 C 600.613281 631.050781 606.421875 625.261719 606.421875 618.128906 C 606.421875 610.996094 600.613281 605.207031 593.484375 605.207031 Z M 593.484375 605.207031 " fill-opacity="1" fill-rule="nonzero"/><path fill="#1a3428" d="M 649.238281 618.128906 C 649.238281 625.261719 655.046875 631.050781 662.175781 631.050781 L 708.527344 631.050781 C 715.660156 631.050781 721.464844 625.261719 721.464844 618.128906 C 721.464844 610.996094 715.660156 605.207031 708.527344 605.207031 L 662.175781 605.207031 C 655.042969 605.207031 649.238281 611 649.238281 618.128906 Z M 649.238281 618.128906 " fill-opacity="1" fill-rule="nonzero"/><path fill="#1a3428" d="M 511.222656 660.789062 L 263.121094 660.789062 C 255.988281 660.789062 250.183594 666.578125 250.183594 673.710938 C 250.183594 680.84375 255.988281 686.632812 263.121094 686.632812 L 511.222656 686.632812 C 518.355469 686.632812 524.160156 680.84375 524.160156 673.710938 C 524.160156 666.578125 518.355469 660.789062 511.222656 660.789062 Z M 511.222656 660.789062 " fill-opacity="1" fill-rule="nonzero"/><path fill="#1a3428" d="M 565.625 244.617188 L 539.8125 237.390625 C 531.890625 235.183594 525.488281 229.566406 521.953125 221.253906 C 518.699219 213.710938 519.050781 205.207031 522.929688 197.949219 L 522.929688 197.933594 L 535.519531 174.238281 C 538.488281 168.621094 536.941406 161.648438 531.828125 157.832031 L 485.222656 122.949219 C 480.144531 119.164062 473.042969 119.605469 468.46875 124.066406 L 450.765625 141.375 C 444.457031 147.527344 435.683594 150.398438 425.523438 149.28125 C 417.511719 148.316406 410.472656 143.867188 406.214844 137.039062 L 392.425781 114.964844 C 389.082031 109.570312 382.203125 107.457031 376.394531 109.933594 L 322.878906 132.855469 C 317.011719 135.367188 313.855469 141.769531 315.433594 147.953125 L 321.902344 173.132812 C 323.890625 180.957031 322.28125 189.128906 316.476562 196.8125 C 311.207031 203.851562 303.128906 208.0625 294.324219 208.363281 L 269.589844 209.230469 C 263.214844 209.449219 257.945312 214.296875 257.1875 220.621094 L 250.277344 278.425781 C 249.519531 284.753906 253.496094 290.683594 259.617188 292.40625 L 283.410156 299.0625 C 291.894531 301.445312 298.773438 307.457031 302.402344 315.960938 C 305.875 324.070312 305.527344 333.1875 301.363281 340.964844 L 289.75 362.769531 C 286.753906 368.398438 288.332031 375.375 293.441406 379.191406 L 340.046875 414.074219 C 345.160156 417.875 352.257812 417.449219 356.835938 412.953125 L 375.386719 394.796875 C 381.195312 389.164062 389.585938 386.480469 398.609375 387.632812 C 407.320312 388.640625 414.765625 393.140625 419.058594 399.984375 L 432.847656 422.058594 C 435.246094 425.9375 439.472656 428.128906 443.796875 428.128906 C 445.5 428.128906 447.234375 427.800781 448.878906 427.089844 L 502.390625 404.167969 C 508.261719 401.65625 511.417969 395.253906 509.839844 389.085938 L 503.683594 365.007812 C 501.476562 356.488281 503.273438 347.574219 508.796875 340.207031 C 514.066406 333.171875 522.144531 328.957031 530.945312 328.660156 L 555.683594 327.789062 C 562.058594 327.570312 567.328125 322.726562 568.082031 316.398438 L 574.992188 258.59375 C 575.75 252.265625 571.777344 246.335938 565.625 244.617188 Z M 543.722656 302.34375 L 530.0625 302.816406 C 513.402344 303.398438 498.097656 311.367188 487.875 324.996094 C 477.875 338.359375 474.496094 355.289062 478.628906 371.429688 L 482.039062 384.761719 L 448.878906 398.976562 L 440.988281 386.304688 C 432.535156 372.753906 418.175781 363.871094 401.265625 361.914062 C 398.960938 361.632812 396.6875 361.503906 394.414062 361.503906 C 380.375 361.503906 367.152344 366.710938 357.308594 376.304688 L 346.644531 386.730469 L 317.804688 365.136719 L 324.207031 353.113281 C 332.035156 338.363281 332.761719 321.085938 326.007812 305.40625 C 319.445312 290.054688 306.445312 278.664062 290.382812 274.167969 L 277.257812 270.507812 L 281.550781 234.679688 L 295.210938 234.203125 C 311.875 233.621094 327.175781 225.652344 338.09375 211.074219 C 347.65625 198.375 350.871094 182.21875 346.960938 166.726562 L 343.238281 152.261719 L 376.398438 138.046875 L 384.320312 150.730469 C 392.742188 164.234375 406.65625 173.054688 424.042969 175.121094 C 440.769531 177.03125 456.925781 171.492188 468.820312 159.847656 L 478.632812 150.289062 L 507.503906 171.886719 L 500.089844 185.800781 C 492.546875 200.015625 491.851562 216.644531 498.511719 232.199219 C 504.824219 246.980469 517.347656 257.949219 532.84375 262.285156 L 548.019531 266.53125 Z M 543.722656 302.34375 " fill-opacity="1" fill-rule="nonzero"/><path fill="#1a3428" d="M 480.902344 239.269531 C 464.777344 201.625 421.015625 184.128906 383.402344 200.238281 C 365.164062 208.046875 351.058594 222.5 343.675781 240.910156 C 336.324219 259.320312 336.578125 279.515625 344.371094 297.738281 C 352.195312 315.976562 366.617188 330.078125 385.042969 337.460938 C 393.972656 341.027344 403.3125 342.8125 412.652344 342.8125 C 422.59375 342.8125 432.5 340.808594 441.871094 336.785156 C 479.515625 320.660156 497.027344 276.929688 480.933594 239.285156 C 480.933594 239.285156 480.933594 239.285156 480.902344 239.269531 Z M 431.710938 313.023438 C 419.847656 318.105469 406.6875 318.230469 394.636719 313.464844 C 382.644531 308.652344 373.242188 299.457031 368.132812 287.5625 C 363.050781 275.679688 362.894531 262.523438 367.691406 250.515625 C 372.484375 238.511719 381.699219 229.09375 393.5625 223.996094 C 399.777344 221.347656 406.214844 220.085938 412.558594 220.085938 C 431.363281 220.085938 449.285156 231.097656 457.140625 249.445312 C 467.648438 273.992188 456.226562 302.515625 431.710938 313.023438 Z M 431.710938 313.023438 " fill-opacity="1" fill-rule="nonzero"/><g clip-path="url(#44c11522ce)"><path fill="#1a3428" d="M 789.082031 162.199219 C 788.703125 155.839844 783.753906 150.699219 777.410156 150.097656 L 757.941406 148.238281 C 753.050781 147.765625 748.664062 145.128906 745.632812 140.523438 C 742.921875 136.4375 742.257812 131.390625 743.742188 126.6875 L 749.734375 108.085938 C 751.691406 102.027344 748.917969 95.433594 743.234375 92.578125 L 730.015625 85.941406 L 730.015625 48.8125 C 730.015625 32.515625 716.730469 19.246094 700.449219 19.246094 L 95.097656 19.246094 C 78.785156 19.246094 65.5 32.511719 65.5 48.8125 L 65.5 478.378906 L 14.828125 714.808594 C 14.742188 715.21875 14.890625 715.621094 14.84375 716.035156 C 14.785156 716.546875 14.542969 716.996094 14.542969 717.523438 L 14.542969 726.5 C 14.542969 760.105469 41.898438 787.429688 75.503906 787.429688 L 720.042969 787.429688 C 753.648438 787.429688 780.972656 760.105469 780.972656 726.5 L 780.972656 717.523438 C 780.972656 716.992188 780.734375 716.539062 780.671875 716.027344 C 780.628906 715.617188 780.773438 715.21875 780.691406 714.808594 L 730.015625 478.382812 L 730.015625 294.941406 L 754.152344 279.058594 C 759.484375 275.554688 761.441406 268.691406 758.824219 262.902344 L 751.28125 246.433594 C 749.074219 241.574219 749.167969 236.050781 751.722656 231.050781 C 754.121094 226.253906 758.507812 222.863281 763.714844 221.742188 L 781.351562 217.941406 C 787.601562 216.601562 791.921875 210.917969 791.542969 204.546875 Z M 91.375 48.8125 C 91.375 46.761719 93.046875 45.085938 95.097656 45.085938 L 700.449219 45.085938 C 702.503906 45.085938 704.144531 46.761719 704.144531 48.8125 L 704.144531 73.417969 C 698.683594 71.332031 692.472656 72.761719 688.996094 77.601562 L 678.554688 92.292969 C 675.429688 96.660156 670.570312 99.34375 664.101562 99.722656 C 659.242188 100.007812 654.730469 98.144531 651.511719 94.59375 L 638.792969 80.539062 C 634.535156 75.820312 627.4375 74.96875 622.101562 78.425781 L 586.667969 101.742188 C 581.335938 105.246094 579.347656 112.109375 582.03125 117.914062 L 589.886719 135.125 C 591.875 139.511719 591.78125 144.480469 589.097656 149.796875 C 586.699219 154.5625 582.347656 157.9375 577.109375 159.058594 L 559.46875 162.859375 C 553.222656 164.203125 548.898438 169.898438 549.277344 176.253906 L 551.769531 218.597656 C 552.152344 224.957031 557.101562 230.101562 563.445312 230.699219 L 581.367188 232.4375 C 586.699219 232.925781 591.433594 235.796875 594.558594 240.546875 C 597.492188 245.011719 598.25 250.5 596.609375 255.597656 L 591.089844 272.730469 C 589.132812 278.789062 591.90625 285.382812 597.585938 288.238281 L 635.515625 307.25 C 637.375 308.179688 639.363281 308.621094 641.320312 308.621094 C 645.390625 308.621094 649.367188 306.695312 651.859375 303.195312 L 662.839844 287.761719 C 665.617188 283.867188 670.253906 281.453125 675.871094 281.121094 C 681.457031 280.679688 686.128906 282.652344 689.3125 286.203125 L 702.03125 300.257812 C 702.601562 300.890625 703.488281 300.871094 704.144531 301.363281 L 704.144531 466.84375 L 91.375 466.84375 Z M 720.042969 761.589844 L 75.503906 761.589844 C 57.484375 761.589844 42.59375 747.941406 40.636719 730.445312 L 754.878906 730.445312 C 752.925781 747.941406 738.0625 761.589844 720.042969 761.589844 Z M 43.476562 704.601562 L 88.882812 492.691406 L 706.636719 492.691406 L 752.042969 704.601562 Z M 758.289062 196.464844 C 745.414062 199.242188 734.589844 207.589844 728.5 219.644531 C 722.535156 231.460938 722.285156 245.152344 727.773438 257.175781 L 730.707031 263.5625 L 713.761719 274.703125 L 708.492188 268.847656 C 699.941406 259.445312 687.007812 254.554688 674.039062 255.328125 C 660.847656 256.117188 649.078125 262.476562 641.757812 272.777344 L 637.214844 279.183594 L 619.101562 270.113281 L 621.21875 263.53125 C 625.289062 250.910156 623.425781 237.328125 615.980469 226.078125 C 608.722656 215.003906 596.984375 207.933594 583.792969 206.703125 L 576.914062 206.042969 L 575.746094 185.800781 L 582.53125 184.332031 C 595.46875 181.554688 606.261719 173.195312 612.730469 160.382812 C 618.410156 149.070312 618.660156 135.976562 613.390625 124.398438 L 610.140625 117.234375 L 627.050781 106.09375 L 632.351562 111.949219 C 640.839844 121.335938 652.769531 126.070312 666.808594 125.46875 C 679.933594 124.679688 691.894531 118.054688 699.59375 107.292969 L 703.632812 101.613281 L 721.710938 110.699219 L 719.125 118.765625 C 719.125 118.765625 719.125 118.78125 719.125 118.792969 C 715.210938 130.988281 717.011719 144.085938 724.363281 155.238281 C 731.398438 165.917969 742.757812 172.75 755.476562 173.949219 L 763.898438 174.769531 L 765.097656 194.992188 Z M 758.289062 196.464844 " fill-opacity="1" fill-rule="nonzero"/></g><path fill="#1a3428" d="M 681.359375 137.300781 C 667.097656 134.398438 652.679688 137.160156 640.625 145.113281 C 615.664062 161.535156 608.691406 195.234375 625.132812 220.210938 C 635.511719 236.015625 652.835938 244.601562 670.507812 244.601562 C 680.730469 244.601562 691.078125 241.714844 700.230469 235.6875 C 725.21875 219.230469 732.132812 185.53125 715.691406 160.574219 C 707.738281 148.488281 695.527344 140.222656 681.359375 137.300781 Z M 686.03125 214.089844 C 673.03125 222.75 655.359375 219.121094 646.714844 206.011719 C 638.132812 192.933594 641.761719 175.292969 654.824219 166.695312 C 659.527344 163.621094 664.859375 162.027344 670.347656 162.027344 C 672.273438 162.027344 674.230469 162.214844 676.15625 162.609375 C 683.570312 164.140625 689.945312 168.464844 694.109375 174.789062 L 694.109375 174.804688 C 702.722656 187.851562 699.09375 205.492188 686.03125 214.089844 Z M 686.03125 214.089844 " fill-opacity="1" fill-rule="nonzero"/></svg>