<svg xmlns="http://www.w3.org/2000/svg" xmlns:xlink="http://www.w3.org/1999/xlink" width="300" zoomAndPan="magnify" viewBox="0 0 224.87999 149.999998" height="200" preserveAspectRatio="xMidYMid meet" version="1.0"><defs><clipPath id="fa26737ad6"><path d="M 7.519531 48 L 217.359375 48 L 217.359375 104.191406 L 7.519531 104.191406 Z M 7.519531 48 " clip-rule="nonzero"/></clipPath><clipPath id="690531ea4f"><path d="M 7.519531 45.816406 L 217.359375 45.816406 L 217.359375 102 L 7.519531 102 Z M 7.519531 45.816406 " clip-rule="nonzero"/></clipPath><clipPath id="fc363d6afd"><path d="M 5 43 L 220 43 L 220 106.632812 L 5 106.632812 Z M 5 43 " clip-rule="nonzero"/></clipPath></defs><g clip-path="url(#fa26737ad6)"><path fill="#1a3428" d="M 217.359375 76.503906 C 217.359375 91.789062 204.96875 104.179688 189.683594 104.179688 L 35.195312 104.179688 C 19.910156 104.179688 7.519531 91.789062 7.519531 76.503906 C 7.519531 61.21875 19.910156 48.828125 35.195312 48.828125 L 189.683594 48.828125 C 204.96875 48.828125 217.359375 61.21875 217.359375 76.503906 Z M 217.359375 76.503906 " fill-opacity="1" fill-rule="evenodd"/></g><g clip-path="url(#690531ea4f)"><path fill="#1a3428" d="M 217.359375 73.492188 C 217.359375 88.777344 204.96875 101.167969 189.683594 101.167969 L 35.195312 101.167969 C 19.910156 101.167969 7.519531 88.777344 7.519531 73.492188 C 7.519531 58.207031 19.910156 45.816406 35.195312 45.816406 L 189.683594 45.816406 C 204.96875 45.816406 217.359375 58.207031 217.359375 73.492188 Z M 217.359375 73.492188 " fill-opacity="1" fill-rule="evenodd"/></g><path fill="#ffffff" d="M 214.632812 73.507812 C 214.632812 87.660156 203.160156 99.132812 189.011719 99.132812 L 35.898438 99.132812 C 21.75 99.132812 10.277344 87.660156 10.277344 73.507812 C 10.277344 59.359375 21.75 47.886719 35.898438 47.886719 L 189.011719 47.886719 C 203.160156 47.886719 214.632812 59.359375 214.632812 73.507812 Z M 214.632812 73.507812 " fill-opacity="1" fill-rule="evenodd"/><path fill="#1a3428" d="M 77.625 69.585938 C 77.105469 69.585938 76.621094 69.675781 76.167969 69.859375 C 75.71875 70.042969 75.328125 70.304688 74.996094 70.648438 C 74.664062 70.996094 74.40625 71.40625 74.21875 71.882812 C 74.027344 72.355469 73.933594 72.894531 73.933594 73.492188 C 73.933594 74.078125 74.027344 74.613281 74.21875 75.09375 C 74.40625 75.578125 74.664062 75.992188 74.996094 76.335938 C 75.328125 76.679688 75.71875 76.945312 76.167969 77.128906 C 76.621094 77.308594 77.105469 77.402344 77.625 77.402344 C 78.148438 77.402344 78.628906 77.308594 79.082031 77.128906 C 79.53125 76.945312 79.921875 76.679688 80.253906 76.335938 C 80.585938 75.992188 80.84375 75.578125 81.035156 75.09375 C 81.222656 74.613281 81.316406 74.078125 81.316406 73.492188 C 81.316406 72.894531 81.222656 72.355469 81.035156 71.882812 C 80.84375 71.40625 80.585938 70.996094 80.253906 70.648438 C 79.921875 70.304688 79.53125 70.042969 79.082031 69.859375 C 78.628906 69.675781 78.148438 69.585938 77.625 69.585938 Z M 108.890625 66.65625 L 112.074219 66.65625 L 118.109375 73.941406 L 118.109375 66.65625 L 121.898438 66.65625 L 121.898438 80.332031 L 118.714844 80.332031 L 112.683594 73.042969 L 112.683594 80.332031 L 108.890625 80.332031 Z M 102.230469 66.65625 L 106.097656 66.65625 L 106.097656 80.332031 L 102.230469 80.332031 Z M 58.761719 66.65625 L 62.628906 66.65625 L 62.628906 77.265625 L 69.152344 77.265625 L 69.152344 80.332031 L 58.761719 80.332031 Z M 94.128906 66.382812 C 95.417969 66.382812 96.570312 66.597656 97.585938 67.027344 C 98.601562 67.457031 99.441406 68.074219 100.105469 68.882812 L 97.644531 71.109375 C 97.175781 70.601562 96.671875 70.21875 96.128906 69.964844 C 95.589844 69.710938 94.988281 69.585938 94.320312 69.585938 C 93.738281 69.585938 93.207031 69.675781 92.722656 69.859375 C 92.238281 70.042969 91.828125 70.304688 91.492188 70.648438 C 91.152344 70.996094 90.890625 71.40625 90.699219 71.882812 C 90.511719 72.355469 90.417969 72.894531 90.417969 73.492188 C 90.417969 74.066406 90.511719 74.59375 90.699219 75.074219 C 90.890625 75.558594 91.152344 75.972656 91.492188 76.316406 C 91.828125 76.660156 92.234375 76.929688 92.710938 77.117188 C 93.1875 77.304688 93.710938 77.402344 94.285156 77.402344 C 94.859375 77.402344 95.417969 77.304688 95.964844 77.117188 L 96.375 76.949219 L 96.375 73.199219 L 99.792969 73.199219 L 99.792969 78.867188 C 99.011719 79.425781 98.105469 79.855469 97.078125 80.15625 C 96.050781 80.453125 95.039062 80.605469 94.050781 80.605469 C 92.96875 80.605469 91.96875 80.433594 91.039062 80.085938 C 90.117188 79.742188 89.320312 79.25 88.648438 78.613281 C 87.980469 77.972656 87.453125 77.222656 87.074219 76.355469 C 86.699219 75.488281 86.511719 74.535156 86.511719 73.492188 C 86.511719 72.449219 86.699219 71.496094 87.074219 70.628906 C 87.453125 69.765625 87.980469 69.011719 88.660156 68.375 C 89.335938 67.734375 90.140625 67.242188 91.070312 66.898438 C 92.003906 66.554688 93.019531 66.382812 94.128906 66.382812 Z M 77.625 66.382812 C 78.730469 66.382812 79.742188 66.558594 80.664062 66.910156 C 81.578125 67.261719 82.378906 67.757812 83.054688 68.402344 C 83.730469 69.046875 84.265625 69.800781 84.648438 70.660156 C 85.03125 71.519531 85.222656 72.464844 85.222656 73.492188 C 85.222656 74.523438 85.03125 75.46875 84.648438 76.335938 C 84.265625 77.203125 83.730469 77.953125 83.054688 78.59375 C 82.378906 79.230469 81.578125 79.726562 80.664062 80.078125 C 79.742188 80.429688 78.730469 80.605469 77.625 80.605469 C 76.53125 80.605469 75.523438 80.429688 74.597656 80.078125 C 73.671875 79.726562 72.867188 79.226562 72.183594 78.582031 C 71.5 77.9375 70.96875 77.183594 70.59375 76.324219 C 70.21875 75.464844 70.027344 74.523438 70.027344 73.492188 C 70.027344 72.464844 70.21875 71.519531 70.59375 70.660156 C 70.96875 69.800781 71.5 69.046875 72.183594 68.402344 C 72.867188 67.757812 73.671875 67.261719 74.597656 66.910156 C 75.523438 66.558594 76.53125 66.382812 77.625 66.382812 Z M 77.625 66.382812 " fill-opacity="1" fill-rule="evenodd"/><path fill="#1a3428" d="M 187.792969 76.050781 C 182.738281 76.050781 178.582031 79.019531 178.082031 82.824219 L 178.046875 83.386719 L 197.542969 83.386719 L 197.507812 82.824219 C 197.007812 79.019531 192.851562 76.050781 187.792969 76.050781 Z M 187.792969 63.632812 C 184.574219 63.632812 181.957031 66.253906 181.957031 69.472656 C 181.957031 72.691406 184.574219 75.308594 187.792969 75.308594 C 191.015625 75.308594 193.632812 72.691406 193.632812 69.472656 C 193.632812 66.253906 191.015625 63.632812 187.792969 63.632812 Z M 187.792969 54.128906 C 198.496094 54.128906 207.175781 62.804688 207.175781 73.507812 C 207.175781 84.214844 198.496094 92.890625 187.792969 92.890625 C 177.09375 92.890625 168.414062 84.214844 168.414062 73.507812 C 168.414062 62.804688 177.09375 54.128906 187.792969 54.128906 Z M 187.792969 54.128906 " fill-opacity="1" fill-rule="evenodd"/><g clip-path="url(#fc363d6afd)"><path fill="#1a3428" d="M 187.394531 106.902344 L 37.449219 106.902344 C 19.828125 106.902344 5.5 92.578125 5.5 74.957031 C 5.5 57.335938 19.828125 43.007812 37.449219 43.007812 L 187.394531 43.007812 C 205.015625 43.007812 219.34375 57.335938 219.34375 74.957031 C 219.34375 92.578125 205.015625 106.902344 187.394531 106.902344 Z M 37.449219 46.03125 C 21.492188 46.03125 8.523438 58.996094 8.523438 74.957031 C 8.523438 90.914062 21.492188 103.878906 37.449219 103.878906 L 187.394531 103.878906 C 203.355469 103.878906 216.320312 90.914062 216.320312 74.957031 C 216.320312 58.996094 203.355469 46.03125 187.394531 46.03125 Z M 37.449219 46.03125 " fill-opacity="1" fill-rule="nonzero"/></g></svg>