<svg xmlns="http://www.w3.org/2000/svg" xmlns:xlink="http://www.w3.org/1999/xlink" width="1080" zoomAndPan="magnify" viewBox="0 0 810 809.999993" height="1080" preserveAspectRatio="xMidYMid meet" version="1.0"><defs><clipPath id="39a9696094"><path d="M 654 197 L 793.75 197 L 793.75 306 L 654 306 Z M 654 197 " clip-rule="nonzero"/></clipPath><clipPath id="ebaebbcb65"><path d="M 25.234375 197 L 165 197 L 165 306 L 25.234375 306 Z M 25.234375 197 " clip-rule="nonzero"/></clipPath><clipPath id="c1992517ab"><path d="M 302 474 L 546 474 L 546 767.582031 L 302 767.582031 Z M 302 474 " clip-rule="nonzero"/></clipPath><clipPath id="324aae2d7c"><path d="M 172.425781 117 L 638 117 L 638 524.769531 L 172.425781 524.769531 Z M 172.425781 117 " clip-rule="nonzero"/></clipPath><clipPath id="c5a0e11c37"><path d="M 190.867188 182.75 C 153.152344 244.882812 179.722656 305.359375 213.113281 337.460938 L 408.347656 524.769531 L 599.460938 338.128906 C 630.515625 303.597656 642.417969 266.972656 635.808594 226.191406 C 626.675781 169.773438 580.183594 126.003906 522.753906 119.753906 C 487.53125 115.960938 453.503906 125.929688 426.945312 147.996094 C 419.800781 153.933594 413.410156 160.570312 407.84375 167.785156 C 401.234375 159.570312 393.488281 152.058594 384.726562 145.398438 C 354.191406 122.1875 315.316406 112.972656 277.976562 120.140625 C 242.613281 126.972656 210.867188 149.785156 190.867188 182.75 Z M 190.867188 182.75 " clip-rule="nonzero"/></clipPath><clipPath id="f459f62e8e"><path d="M 438 249.035156 L 510 249.035156 L 510 320 L 438 320 Z M 438 249.035156 " clip-rule="nonzero"/></clipPath><clipPath id="aeeb0d27c0"><path d="M 300.820312 333 L 514 333 L 514 497 L 300.820312 497 Z M 300.820312 333 " clip-rule="nonzero"/></clipPath><clipPath id="2af16a972c"><path d="M 305 249.035156 L 376 249.035156 L 376 320 L 305 320 Z M 305 249.035156 " clip-rule="nonzero"/></clipPath><clipPath id="b75e862656"><path d="M 176 125.960938 L 628 125.960938 L 628 516.710938 L 176 516.710938 Z M 176 125.960938 " clip-rule="nonzero"/></clipPath><clipPath id="1298d9a1e1"><path d="M 272 308 L 379 308 L 379 349.953125 L 272 349.953125 Z M 272 308 " clip-rule="nonzero"/></clipPath><clipPath id="3ab5395df8"><path d="M 426 308 L 532 308 L 532 349.953125 L 426 349.953125 Z M 426 308 " clip-rule="nonzero"/></clipPath><clipPath id="c12b47817c"><path d="M 317 204.453125 L 379 204.453125 L 379 227 L 317 227 Z M 317 204.453125 " clip-rule="nonzero"/></clipPath></defs><path fill="#1a3428" d="M 701.613281 291.773438 C 701.613281 291.773438 695.605469 313.855469 683.421875 336.175781 C 675.714844 350.296875 665.589844 364.675781 652.605469 372.84375 C 632.523438 385.472656 595.210938 382.511719 562.554688 367.613281 C 557.523438 365.316406 551.570312 367.539062 549.277344 372.570312 C 546.980469 377.601562 549.203125 383.550781 554.234375 385.847656 C 593.738281 403.867188 638.988281 405.085938 663.277344 389.808594 C 678.996094 379.921875 691.683594 362.875 701.015625 345.777344 C 714.390625 321.277344 720.957031 297.019531 720.957031 297.019531 C 722.402344 291.683594 719.246094 286.171875 713.90625 284.726562 C 708.570312 283.277344 703.058594 286.433594 701.613281 291.773438 Z M 701.613281 291.773438 " fill-opacity="1" fill-rule="evenodd"/><path fill="#ffffff" d="M 693.800781 285.546875 C 693.800781 285.546875 689.699219 294.707031 699.054688 298.953125 C 708.410156 303.203125 719.179688 305.277344 723.925781 303.285156 C 728.671875 301.292969 731.4375 292.441406 731.4375 292.441406 C 731.4375 292.441406 742.980469 288.679688 752.179688 279.042969 C 761.378906 269.410156 766.054688 260.722656 774.085938 252.855469 C 782.121094 244.988281 791.84375 236.542969 792.285156 231.171875 C 792.722656 225.800781 787.984375 222.21875 784.242188 221.925781 C 784.242188 221.925781 789.273438 215.773438 784.320312 209.863281 C 779.367188 203.949219 772.757812 204.316406 769.660156 205.765625 C 769.660156 205.765625 768.582031 202.527344 764.757812 200.273438 C 760.597656 197.824219 754.800781 197.628906 748.515625 202.171875 C 742.226562 206.71875 733.425781 219.601562 723.011719 227.082031 C 723.011719 227.082031 712.738281 230.597656 706.511719 233.992188 C 700.285156 237.390625 698.914062 238.167969 694.75 237.808594 C 690.585938 237.453125 685.652344 230.769531 677.707031 226.550781 C 670.234375 222.582031 661.460938 222.808594 658.179688 225.875 C 652.957031 230.75 654.804688 236.105469 662.789062 243.414062 C 670.769531 250.71875 676.324219 255.285156 679.917969 264.652344 C 683.515625 274.015625 685.746094 279.136719 693.800781 285.546875 Z M 693.800781 285.546875 " fill-opacity="1" fill-rule="evenodd"/><g clip-path="url(#39a9696094)"><path fill="#1a3428" d="M 692.480469 285.914062 C 691.964844 287.515625 691.117188 291.199219 692.789062 294.667969 C 693.742188 296.636719 695.488281 298.558594 698.59375 299.96875 C 704.316406 302.566406 710.566406 304.363281 715.691406 304.953125 C 719.269531 305.359375 722.328125 305.164062 724.359375 304.308594 C 726.453125 303.433594 728.230469 301.378906 729.570312 299.1875 C 731.007812 296.84375 731.945312 294.375 732.320312 293.3125 C 734.722656 292.4375 744.773438 288.417969 752.988281 279.8125 C 762.175781 270.1875 766.839844 261.511719 774.867188 253.652344 C 779.714844 248.90625 785.167969 243.949219 788.855469 239.574219 C 791.488281 236.453125 793.207031 233.574219 793.394531 231.261719 C 793.824219 226.011719 789.878906 222.269531 786.070312 221.144531 C 787.382812 218.765625 789.144531 213.886719 785.175781 209.144531 C 780.285156 203.3125 773.902344 203.152344 770.238281 204.34375 C 769.570312 203.085938 768.113281 200.957031 765.320312 199.3125 C 760.855469 196.679688 754.617188 196.386719 747.859375 201.269531 C 741.601562 205.792969 732.851562 218.585938 722.496094 226.078125 C 721.167969 226.542969 711.816406 229.832031 705.976562 233.015625 C 700.074219 236.238281 698.792969 237.039062 694.84375 236.703125 C 693.347656 236.574219 691.769531 235.472656 689.921875 234.03125 C 686.796875 231.589844 683.058594 228.132812 678.226562 225.566406 C 673.539062 223.074219 668.355469 222.175781 664.222656 222.535156 C 661.292969 222.792969 658.878906 223.699219 657.417969 225.0625 C 655.652344 226.710938 654.632812 228.421875 654.273438 230.210938 C 653.851562 232.304688 654.324219 234.535156 655.738281 236.957031 C 657.035156 239.175781 659.140625 241.585938 662.035156 244.234375 C 669.871094 251.40625 675.351562 255.859375 678.878906 265.050781 C 682.464844 274.386719 684.746094 279.585938 692.480469 285.914062 Z M 768.164062 205.199219 C 767.59375 204.1875 766.398438 202.53125 764.191406 201.230469 C 760.34375 198.964844 754.988281 198.867188 749.164062 203.074219 C 742.878906 207.621094 734.074219 220.503906 723.660156 227.984375 C 723.570312 228.050781 723.476562 228.101562 723.371094 228.136719 C 723.371094 228.136719 713.207031 231.609375 707.042969 234.972656 C 700.496094 238.542969 699.035156 239.296875 694.652344 238.917969 C 692.820312 238.761719 690.816406 237.554688 688.554688 235.785156 C 685.511719 233.410156 681.882812 230.03125 677.183594 227.535156 C 672.90625 225.261719 668.1875 224.425781 664.414062 224.757812 C 662.070312 224.960938 660.105469 225.597656 658.9375 226.691406 C 657.570312 227.964844 656.734375 229.265625 656.453125 230.652344 C 656.128906 232.265625 656.574219 233.96875 657.664062 235.832031 C 658.867188 237.898438 660.84375 240.125 663.539062 242.589844 C 671.671875 250.035156 677.296875 254.710938 680.957031 264.25 C 684.46875 273.390625 686.625 278.410156 694.472656 284.660156 C 694.84375 284.929688 700.992188 289.300781 708.175781 290.914062 C 708.777344 291.046875 709.152344 291.644531 709.019531 292.242188 C 708.882812 292.84375 708.289062 293.21875 707.6875 293.085938 C 701.859375 291.777344 696.671875 288.757812 694.386719 287.285156 C 693.992188 288.761719 693.636719 291.292969 694.796875 293.699219 C 695.5625 295.289062 697.007812 296.800781 699.515625 297.941406 C 705.015625 300.4375 711.015625 302.175781 715.941406 302.738281 C 719.0625 303.09375 721.730469 303 723.496094 302.257812 C 725.199219 301.542969 726.582031 299.808594 727.671875 298.027344 C 728.496094 296.675781 729.144531 295.285156 729.601562 294.1875 C 727.351562 294.777344 723.644531 295.441406 719.472656 294.964844 C 718.863281 294.894531 718.421875 294.339844 718.492188 293.730469 C 718.5625 293.121094 719.117188 292.679688 719.726562 292.753906 C 725.9375 293.464844 731.019531 291.410156 731.019531 291.410156 L 731.054688 291.398438 C 731.070312 291.390625 731.085938 291.386719 731.101562 291.382812 C 731.414062 291.277344 742.507812 287.566406 751.375 278.277344 C 760.585938 268.628906 765.265625 259.9375 773.308594 252.058594 C 778.101562 247.363281 783.503906 242.464844 787.152344 238.140625 C 789.410156 235.464844 791.011719 233.066406 791.175781 231.082031 C 791.554688 226.40625 787.421875 223.300781 784.164062 223.039062 C 784.148438 223.035156 784.132812 223.035156 784.117188 223.035156 L 784.089844 223.03125 C 784.082031 223.03125 784.074219 223.027344 784.0625 223.027344 C 784.035156 223.023438 778.882812 222.265625 773.121094 226.917969 C 767.519531 231.4375 759.113281 239.507812 753.105469 243.605469 C 754.742188 244.855469 756.351562 246.210938 757.902344 247.679688 C 758.347656 248.101562 758.367188 248.808594 757.945312 249.253906 C 757.523438 249.699219 756.820312 249.71875 756.371094 249.296875 C 743.816406 237.414062 727.132812 233.132812 727.132812 233.132812 C 726.539062 232.980469 726.175781 232.371094 726.332031 231.777344 C 726.484375 231.179688 727.089844 230.824219 727.683594 230.972656 C 727.683594 230.972656 731.445312 231.941406 736.773438 234.21875 C 736.847656 234.089844 736.945312 233.972656 737.074219 233.875 C 741.382812 230.59375 747.789062 225.722656 755.65625 216.316406 C 761.769531 209.007812 766.179688 206.199219 768.164062 205.199219 Z M 701.378906 243.851562 C 701.378906 243.851562 712.492188 249.324219 715.078125 260.949219 C 715.214844 261.546875 715.808594 261.925781 716.40625 261.792969 C 717.007812 261.660156 717.386719 261.066406 717.253906 260.464844 C 714.4375 247.816406 702.363281 241.855469 702.363281 241.855469 C 701.8125 241.582031 701.144531 241.8125 700.871094 242.363281 C 700.597656 242.914062 700.828125 243.582031 701.378906 243.851562 Z M 783.710938 220.761719 C 784.660156 219.347656 787.082031 214.890625 783.46875 210.578125 C 778.960938 205.195312 772.96875 205.453125 770.144531 206.769531 C 770.105469 206.785156 770.066406 206.800781 770.023438 206.816406 L 769.992188 206.828125 L 769.980469 206.832031 C 769.972656 206.832031 765.242188 208.328125 757.363281 217.746094 C 749.691406 226.921875 743.378906 231.867188 739 235.207031 C 742.722656 236.929688 746.992188 239.226562 751.195312 242.203125 C 757.183594 238.320312 765.949219 229.84375 771.722656 225.183594 C 777.039062 220.894531 781.9375 220.671875 783.710938 220.761719 Z M 783.710938 220.761719 " fill-opacity="1" fill-rule="evenodd"/></g><path fill="#1a3428" d="M 117.371094 291.773438 C 117.371094 291.773438 123.378906 313.855469 135.558594 336.175781 C 143.269531 350.296875 153.394531 364.675781 166.378906 372.84375 C 186.460938 385.472656 223.769531 382.511719 256.429688 367.613281 C 261.460938 365.316406 267.410156 367.539062 269.707031 372.570312 C 272.003906 377.601562 269.78125 383.550781 264.75 385.847656 C 225.242188 403.867188 179.996094 405.085938 155.707031 389.808594 C 139.984375 379.921875 127.300781 362.875 117.96875 345.777344 C 104.59375 321.277344 98.027344 297.019531 98.027344 297.019531 C 96.582031 291.683594 99.738281 286.171875 105.078125 284.726562 C 110.414062 283.277344 115.925781 286.433594 117.371094 291.773438 Z M 117.371094 291.773438 " fill-opacity="1" fill-rule="evenodd"/><path fill="#ffffff" d="M 125.183594 285.546875 C 125.183594 285.546875 129.285156 294.707031 119.929688 298.953125 C 110.574219 303.203125 99.804688 305.277344 95.054688 303.285156 C 90.3125 301.292969 87.546875 292.441406 87.546875 292.441406 C 87.546875 292.441406 76.003906 288.679688 66.804688 279.042969 C 57.601562 269.410156 52.929688 260.722656 44.894531 252.855469 C 36.863281 244.988281 27.136719 236.542969 26.699219 231.171875 C 26.261719 225.800781 31 222.21875 34.742188 221.925781 C 34.742188 221.925781 29.707031 215.773438 34.664062 209.863281 C 39.617188 203.949219 46.226562 204.316406 49.324219 205.765625 C 49.324219 205.765625 50.402344 202.527344 54.226562 200.273438 C 58.386719 197.824219 64.183594 197.628906 70.46875 202.171875 C 76.757812 206.71875 85.558594 219.601562 95.972656 227.082031 C 95.972656 227.082031 106.246094 230.597656 112.472656 233.992188 C 118.699219 237.390625 120.070312 238.167969 124.234375 237.808594 C 128.398438 237.453125 133.332031 230.769531 141.277344 226.550781 C 148.75 222.582031 157.523438 222.808594 160.804688 225.875 C 166.023438 230.75 164.179688 236.105469 156.195312 243.414062 C 148.210938 250.71875 142.660156 255.285156 139.066406 264.652344 C 135.46875 274.015625 133.234375 279.136719 125.183594 285.546875 Z M 125.183594 285.546875 " fill-opacity="1" fill-rule="evenodd"/><g clip-path="url(#ebaebbcb65)"><path fill="#1a3428" d="M 126.503906 285.914062 C 127.019531 287.515625 127.867188 291.199219 126.191406 294.667969 C 125.242188 296.636719 123.496094 298.558594 120.390625 299.96875 C 114.664062 302.566406 108.417969 304.363281 103.292969 304.953125 C 99.710938 305.359375 96.65625 305.164062 94.625 304.308594 C 92.53125 303.433594 90.753906 301.378906 89.414062 299.1875 C 87.976562 296.84375 87.035156 294.375 86.664062 293.3125 C 84.257812 292.4375 74.210938 288.417969 65.996094 279.8125 C 56.808594 270.1875 52.140625 261.511719 44.117188 253.652344 C 39.269531 248.90625 33.816406 243.949219 30.128906 239.574219 C 27.496094 236.453125 25.777344 233.574219 25.589844 231.261719 C 25.160156 226.011719 29.105469 222.269531 32.914062 221.144531 C 31.601562 218.765625 29.835938 213.886719 33.808594 209.144531 C 38.699219 203.3125 45.082031 203.152344 48.746094 204.34375 C 49.414062 203.085938 50.871094 200.957031 53.660156 199.3125 C 58.128906 196.679688 64.367188 196.386719 71.125 201.269531 C 77.382812 205.792969 86.132812 218.585938 96.488281 226.078125 C 97.8125 226.542969 107.167969 229.832031 113.003906 233.015625 C 118.910156 236.238281 120.1875 237.039062 124.140625 236.703125 C 125.636719 236.574219 127.210938 235.472656 129.058594 234.03125 C 132.1875 231.589844 135.925781 228.132812 140.757812 225.566406 C 145.445312 223.074219 150.628906 222.175781 154.761719 222.535156 C 157.691406 222.792969 160.105469 223.699219 161.566406 225.0625 C 163.328125 226.710938 164.351562 228.421875 164.710938 230.210938 C 165.132812 232.304688 164.65625 234.535156 163.246094 236.957031 C 161.949219 239.175781 159.84375 241.585938 156.949219 244.234375 C 149.113281 251.40625 143.632812 255.859375 140.105469 265.050781 C 136.519531 274.386719 134.238281 279.585938 126.503906 285.914062 Z M 50.816406 205.199219 C 51.390625 204.1875 52.585938 202.53125 54.792969 201.230469 C 58.640625 198.964844 63.996094 198.867188 69.816406 203.074219 C 76.105469 207.621094 84.910156 220.503906 95.320312 227.984375 C 95.410156 228.050781 95.507812 228.101562 95.613281 228.136719 C 95.613281 228.136719 105.777344 231.609375 111.9375 234.972656 C 118.488281 238.542969 119.949219 239.296875 124.332031 238.917969 C 126.164062 238.761719 128.167969 237.554688 130.429688 235.785156 C 133.472656 233.410156 137.097656 230.03125 141.800781 227.535156 C 146.078125 225.261719 150.796875 224.425781 154.566406 224.757812 C 156.910156 224.960938 158.878906 225.597656 160.042969 226.691406 C 161.414062 227.964844 162.25 229.265625 162.53125 230.652344 C 162.851562 232.265625 162.410156 233.96875 161.320312 235.832031 C 160.117188 237.898438 158.136719 240.125 155.445312 242.589844 C 147.3125 250.035156 141.6875 254.710938 138.027344 264.25 C 134.515625 273.390625 132.359375 278.410156 124.511719 284.660156 C 124.140625 284.929688 117.992188 289.300781 110.808594 290.914062 C 110.207031 291.046875 109.832031 291.644531 109.964844 292.242188 C 110.101562 292.84375 110.695312 293.21875 111.292969 293.085938 C 117.125 291.777344 122.308594 288.757812 124.597656 287.285156 C 124.992188 288.761719 125.347656 291.292969 124.1875 293.699219 C 123.421875 295.289062 121.976562 296.800781 119.46875 297.941406 C 113.96875 300.4375 107.96875 302.175781 103.042969 302.738281 C 99.921875 303.09375 97.253906 303 95.488281 302.257812 C 93.785156 301.542969 92.402344 299.808594 91.3125 298.027344 C 90.488281 296.675781 89.839844 295.285156 89.382812 294.1875 C 91.628906 294.777344 95.339844 295.441406 99.511719 294.964844 C 100.121094 294.894531 100.558594 294.339844 100.492188 293.730469 C 100.421875 293.121094 99.867188 292.679688 99.257812 292.753906 C 93.046875 293.464844 87.964844 291.410156 87.964844 291.410156 L 87.925781 291.398438 C 87.914062 291.390625 87.898438 291.386719 87.882812 291.382812 C 87.570312 291.277344 76.476562 287.566406 67.609375 278.277344 C 58.398438 268.628906 53.71875 259.9375 45.675781 252.058594 C 40.882812 247.363281 35.480469 242.464844 31.832031 238.140625 C 29.574219 235.464844 27.972656 233.066406 27.808594 231.082031 C 27.425781 226.40625 31.558594 223.300781 34.820312 223.039062 C 34.835938 223.035156 34.851562 223.035156 34.867188 223.035156 L 34.894531 223.03125 C 34.902344 223.03125 34.910156 223.027344 34.921875 223.027344 C 34.949219 223.023438 40.097656 222.265625 45.863281 226.917969 C 51.464844 231.4375 59.867188 239.507812 65.878906 243.605469 C 64.242188 244.855469 62.632812 246.210938 61.082031 247.679688 C 60.632812 248.101562 60.613281 248.808594 61.035156 249.253906 C 61.460938 249.699219 62.164062 249.71875 62.609375 249.296875 C 75.167969 237.414062 91.851562 233.132812 91.851562 233.132812 C 92.445312 232.980469 92.808594 232.371094 92.652344 231.777344 C 92.5 231.179688 91.894531 230.824219 91.296875 230.972656 C 91.296875 230.972656 87.539062 231.941406 82.210938 234.21875 C 82.136719 234.089844 82.035156 233.972656 81.910156 233.875 C 77.601562 230.59375 71.191406 225.722656 63.328125 216.316406 C 57.214844 209.007812 52.804688 206.199219 50.816406 205.199219 Z M 117.605469 243.851562 C 117.605469 243.851562 106.492188 249.324219 103.902344 260.949219 C 103.769531 261.546875 103.175781 261.925781 102.574219 261.792969 C 101.976562 261.660156 101.597656 261.066406 101.730469 260.464844 C 104.542969 247.816406 116.621094 241.855469 116.621094 241.855469 C 117.171875 241.582031 117.839844 241.8125 118.113281 242.363281 C 118.382812 242.914062 118.15625 243.582031 117.605469 243.851562 Z M 35.273438 220.761719 C 34.324219 219.347656 31.902344 214.890625 35.515625 210.578125 C 40.023438 205.195312 46.015625 205.453125 48.839844 206.769531 C 48.878906 206.785156 48.917969 206.800781 48.960938 206.816406 L 48.992188 206.828125 L 49.003906 206.832031 C 49.007812 206.832031 53.742188 208.328125 61.617188 217.746094 C 69.292969 226.921875 75.605469 231.867188 79.984375 235.207031 C 76.261719 236.929688 71.992188 239.226562 67.789062 242.203125 C 61.800781 238.320312 53.035156 229.84375 47.257812 225.183594 C 41.945312 220.894531 37.046875 220.671875 35.273438 220.761719 Z M 35.273438 220.761719 " fill-opacity="1" fill-rule="evenodd"/></g><path fill="#ffffff" d="M 338.28125 666.003906 C 343.519531 656.320312 361.796875 655.410156 373.722656 657.738281 C 385.648438 660.066406 393.261719 664.464844 393.949219 670.78125 C 394.539062 676.222656 390.542969 679.910156 390.542969 679.910156 C 395.800781 693.304688 398.523438 718.730469 398.523438 718.730469 C 402.78125 738.070312 403.066406 753.214844 401.835938 756.289062 C 400.609375 759.363281 375 766.605469 352.800781 766.609375 C 330.597656 766.617188 312.128906 759.308594 308.464844 756.824219 C 304.800781 754.34375 300.847656 743.285156 305.886719 725.648438 C 310.921875 708.015625 328.632812 699.390625 328.632812 699.390625 C 333.128906 689.558594 340.304688 679.382812 340.304688 679.382812 C 336.773438 676.652344 335.800781 670.59375 338.28125 666.003906 Z M 451.175781 655.605469 C 457.679688 656.84375 469.679688 660.433594 474.9375 666.539062 C 480.199219 672.640625 477.996094 679.253906 473.738281 682.855469 C 473.738281 682.855469 476.816406 689.484375 484.605469 694.183594 C 484.605469 694.183594 503.078125 685.71875 522.046875 696.847656 C 541.011719 707.976562 545.5625 729.394531 543.378906 742.300781 C 541.199219 755.207031 537.992188 754.621094 532.933594 757.21875 C 527.871094 759.816406 502.125 762.78125 482.429688 762.734375 C 462.734375 762.691406 448.222656 755.976562 429.320312 743.066406 C 410.417969 730.152344 412.324219 728.46875 412.722656 722.5 C 413.125 716.53125 419.238281 688.867188 427.917969 673.191406 C 427.917969 673.191406 424.0625 667.136719 427.917969 661.0625 C 432.410156 653.984375 441.679688 653.792969 451.175781 655.605469 Z M 451.175781 655.605469 " fill-opacity="1" fill-rule="evenodd"/><g clip-path="url(#c1992517ab)"><path fill="#1a3428" d="M 352.53125 662.808594 C 354.0625 587.066406 353.429688 488.78125 353.429688 488.78125 C 353.382812 481.777344 359.035156 476.054688 366.035156 476.007812 C 373.042969 475.964844 378.765625 481.613281 378.808594 488.617188 C 378.808594 488.617188 380.714844 587.320312 377.910156 663.324219 L 378.117188 657.363281 C 383.570312 658.78125 387.902344 660.714844 390.816406 663.101562 C 393.441406 665.25 394.96875 667.78125 395.277344 670.636719 C 395.78125 675.289062 393.300781 678.796875 392.085938 680.207031 C 397.03125 693.46875 399.679688 717.027344 399.84375 718.511719 C 402.585938 730.980469 403.683594 741.714844 403.796875 748.644531 C 403.796875 748.65625 403.796875 748.667969 403.796875 748.679688 C 403.808594 749.316406 403.808594 749.921875 403.804688 750.488281 C 403.769531 753.613281 403.476562 755.785156 403.078125 756.785156 C 402.945312 757.121094 402.679688 757.507812 402.238281 757.890625 C 401.601562 758.445312 400.476562 759.097656 398.929688 759.769531 C 390.941406 763.234375 370.769531 767.941406 352.800781 767.945312 C 330.214844 767.953125 311.441406 760.457031 307.714844 757.929688 C 306.078125 756.824219 304.308594 754.230469 303.234375 750.203125 C 301.746094 744.628906 301.492188 736.175781 304.601562 725.285156 C 309.320312 708.761719 324.8125 699.898438 327.609375 698.414062 C 331.316406 690.4375 336.675781 682.328125 338.542969 679.585938 C 335.332031 676.222656 334.542969 670.105469 337.105469 665.367188 C 339.359375 661.203125 343.816406 658.484375 349.222656 656.957031 C 350.332031 656.640625 351.480469 656.378906 352.660156 656.160156 Z M 401.125 750.949219 C 395.777344 753.691406 380.039062 760.46875 355.015625 760.582031 C 329.246094 760.699219 313.007812 754.984375 306.75 752.261719 C 307.476562 753.949219 308.335938 755.125 309.214844 755.71875 C 312.816406 758.15625 330.980469 765.28125 352.796875 765.273438 C 368.179688 765.273438 385.214844 761.761719 394.46875 758.609375 C 396.765625 757.828125 398.566406 757.074219 399.714844 756.402344 C 400.113281 756.171875 400.546875 755.800781 400.617188 755.738281 C 400.921875 754.925781 401.082031 753.277344 401.125 750.949219 Z M 443.332031 653.328125 C 441.277344 653.257812 439.296875 653.363281 437.441406 653.683594 C 432.996094 654.457031 429.25 656.472656 426.792969 660.34375 C 423.320312 665.816406 425.441406 671.277344 426.398438 673.191406 C 417.808594 689.144531 411.789062 716.453125 411.390625 722.410156 C 411.214844 725.023438 410.84375 726.886719 411.703125 729.085938 C 412.925781 732.207031 416.824219 736.144531 428.566406 744.167969 C 447.730469 757.261719 462.460938 764.027344 482.425781 764.070312 C 496.289062 764.101562 513.132812 762.652344 523.734375 760.882812 C 528.445312 760.09375 531.960938 759.21875 533.542969 758.40625 C 536.226562 757.027344 538.390625 756.445312 540.203125 754.546875 C 541.65625 753.019531 542.921875 750.632812 543.960938 746.21875 C 543.980469 746.15625 543.996094 746.09375 544.003906 746.03125 C 544.25 744.980469 544.480469 743.816406 544.699219 742.523438 C 546.945312 729.230469 542.261719 707.160156 522.722656 695.695312 C 505.300781 685.472656 488.277344 691.28125 484.722656 692.6875 C 479.339844 689.265625 476.449219 684.941406 475.40625 683.140625 C 479.613281 679 481.480469 672.082031 475.949219 665.664062 C 473.988281 663.386719 471.117188 661.4375 467.933594 659.8125 C 475.972656 636.1875 483.925781 612.828125 488.355469 593.742188 C 492.09375 577.613281 493.144531 564.078125 490.933594 555 C 484.871094 530.132812 462.140625 481.859375 462.140625 481.859375 C 459.148438 475.527344 451.574219 472.820312 445.242188 475.8125 C 438.910156 478.808594 436.203125 486.378906 439.199219 492.710938 C 439.199219 492.710938 460.605469 537.769531 466.273438 561.011719 C 467.820312 567.351562 466.238281 576.738281 463.625 588.007812 C 459.257812 606.855469 451.277344 629.992188 443.332031 653.328125 Z M 442.429688 655.976562 C 440.855469 655.960938 439.335938 656.066406 437.898438 656.316406 C 434.214844 656.957031 431.082031 658.570312 429.046875 661.777344 C 425.695312 667.0625 428.953125 672.324219 429.042969 672.472656 L 429.0625 672.5 L 429.082031 672.53125 C 429.082031 672.53125 431.429688 676.441406 440.648438 679.738281 C 441.34375 679.988281 441.703125 680.75 441.457031 681.445312 C 441.207031 682.140625 440.441406 682.503906 439.746094 682.253906 C 433.277344 679.941406 429.839844 677.273438 428.160156 675.574219 C 420.332031 690.800781 414.796875 715.277344 414.109375 721.984375 C 416.8125 724.597656 431.613281 738.453125 449.191406 746.363281 C 452.085938 747.667969 454.902344 748.769531 457.671875 749.695312 C 458.371094 749.929688 458.75 750.6875 458.515625 751.386719 C 458.28125 752.085938 457.523438 752.460938 456.824219 752.230469 C 453.972656 751.277344 451.074219 750.144531 448.09375 748.800781 C 432.351562 741.71875 418.785156 729.96875 413.808594 725.371094 C 413.761719 726.296875 413.824219 727.167969 414.191406 728.113281 C 414.613281 729.191406 415.441406 730.351562 416.902344 731.820312 C 419.320312 734.246094 423.371094 737.382812 430.074219 741.964844 C 448.714844 754.695312 463.011719 761.355469 482.433594 761.398438 C 496.144531 761.429688 512.804688 759.996094 523.292969 758.246094 C 527.625 757.523438 530.867188 756.777344 532.324219 756.03125 C 534.699219 754.8125 536.664062 754.386719 538.269531 752.703125 C 539.144531 751.78125 539.898438 750.488281 540.566406 748.507812 C 533.699219 751.84375 522.585938 754.636719 507.433594 755.738281 C 493.273438 756.769531 481.757812 757.292969 470.429688 755.53125 C 469.699219 755.417969 469.199219 754.734375 469.316406 754.007812 C 469.429688 753.28125 470.113281 752.78125 470.839844 752.890625 C 481.984375 754.625 493.3125 754.085938 507.238281 753.074219 C 523.667969 751.878906 535.203125 748.714844 541.511719 744.972656 C 541.703125 744.097656 541.882812 743.136719 542.0625 742.078125 C 544.179688 729.5625 539.761719 708.792969 521.367188 698 C 503.144531 687.308594 485.390625 695.292969 485.164062 695.398438 L 485.113281 695.421875 L 485.097656 695.425781 C 485.097656 695.425781 476.601562 698.859375 468.761719 710.941406 C 468.363281 711.558594 467.535156 711.734375 466.914062 711.335938 C 466.296875 710.933594 466.121094 710.105469 466.523438 709.484375 C 472.433594 700.375 478.734375 695.898438 481.949219 694.042969 C 477.171875 690.652344 474.429688 686.722656 473.238281 684.726562 C 471.191406 685.800781 466.734375 687.46875 459.542969 686.847656 C 458.808594 686.785156 458.265625 686.136719 458.328125 685.402344 C 458.390625 684.667969 459.039062 684.121094 459.773438 684.183594 C 468.53125 684.941406 472.675781 681.980469 472.898438 681.816406 C 476.648438 678.628906 478.566406 672.796875 473.925781 667.410156 C 472.226562 665.4375 469.800781 663.746094 467.082031 662.324219 C 466.605469 663.71875 466.132812 665.117188 465.660156 666.511719 C 464.296875 670.523438 458.550781 671.351562 451.917969 669.101562 C 445.285156 666.851562 439.730469 663.929688 441.621094 658.359375 C 441.890625 657.5625 442.160156 656.769531 442.429688 655.976562 Z M 352.609375 658.890625 C 351.699219 659.070312 350.8125 659.28125 349.949219 659.527344 C 345.304688 660.839844 341.394531 663.058594 339.457031 666.640625 C 337.292969 670.640625 338.039062 675.945312 341.121094 678.324219 L 341.136719 678.335938 C 341.136719 678.335938 343.6875 680.308594 349.785156 681.40625 C 350.511719 681.539062 350.992188 682.234375 350.863281 682.960938 C 350.730469 683.6875 350.035156 684.167969 349.308594 684.039062 C 344.886719 683.238281 342.109375 681.996094 340.675781 681.195312 C 339.007812 683.652344 334.753906 690.101562 331.308594 696.914062 C 335.753906 695.488281 344.644531 693.605469 357.714844 695.296875 C 377.28125 697.828125 388.613281 708.308594 393.472656 713.953125 C 393.953125 714.511719 393.890625 715.359375 393.332031 715.835938 C 392.773438 716.320312 391.925781 716.253906 391.445312 715.695312 C 386.820312 710.320312 376.011719 700.359375 357.371094 697.949219 C 338.917969 695.5625 329.253906 700.570312 329.253906 700.570312 L 329.21875 700.589844 C 329.21875 700.589844 312.050781 708.933594 307.171875 726.015625 C 304.367188 735.828125 304.402344 743.542969 305.632812 748.792969 C 308.644531 750.320312 325.351562 758.046875 355 757.910156 C 381.957031 757.785156 397.824219 749.765625 401.109375 747.925781 C 400.933594 741.105469 399.824219 730.855469 397.21875 719.015625 C 397.207031 718.96875 397.203125 718.921875 397.195312 718.871094 C 397.195312 718.871094 394.71875 695.636719 389.910156 682.035156 C 387.695312 683.4375 383.023438 685.640625 375.238281 685.914062 C 374.5 685.941406 373.882812 685.363281 373.855469 684.625 C 373.832031 683.886719 374.410156 683.269531 375.144531 683.246094 C 385.386719 682.886719 389.617188 678.945312 389.617188 678.945312 L 389.636719 678.925781 C 389.636719 678.925781 393.140625 675.695312 392.621094 670.925781 C 392.320312 668.136719 390.417969 665.820312 387.34375 663.898438 C 384.910156 662.371094 381.761719 661.109375 378.023438 660.101562 L 378.019531 660.191406 C 377.996094 660.9375 377.96875 661.683594 377.941406 662.429688 C 377.933594 662.578125 377.929688 662.730469 377.925781 662.875 C 377.914062 663.175781 377.910156 663.472656 377.875 663.769531 C 377.820312 664.289062 377.699219 664.804688 377.488281 665.28125 C 377.375 665.539062 377.242188 665.78125 377.085938 666.011719 C 376.980469 666.164062 376.863281 666.3125 376.738281 666.453125 C 376.097656 667.183594 375.238281 667.6875 374.339844 668.042969 C 374.203125 668.09375 374.066406 668.144531 373.929688 668.191406 C 373.734375 668.257812 373.535156 668.320312 373.339844 668.375 C 373.089844 668.445312 372.839844 668.507812 372.59375 668.5625 C 372.265625 668.636719 371.9375 668.695312 371.605469 668.75 C 371.167969 668.820312 370.722656 668.875 370.277344 668.917969 C 369.703125 668.972656 369.128906 669.007812 368.550781 669.03125 C 367.796875 669.058594 367.039062 669.0625 366.28125 669.050781 C 365.335938 669.039062 364.390625 668.996094 363.449219 668.929688 C 362.722656 668.875 361.996094 668.804688 361.277344 668.707031 C 360.6875 668.628906 360.105469 668.535156 359.523438 668.417969 C 359.066406 668.328125 358.609375 668.222656 358.160156 668.101562 C 357.820312 668.007812 357.480469 667.90625 357.144531 667.792969 C 356.886719 667.703125 356.632812 667.605469 356.378906 667.503906 C 356.203125 667.429688 356.027344 667.351562 355.851562 667.269531 C 355.710938 667.203125 355.574219 667.132812 355.433594 667.058594 C 354.597656 666.605469 353.808594 666.015625 353.265625 665.222656 C 353.054688 664.914062 352.886719 664.578125 352.765625 664.222656 C 352.644531 663.878906 352.574219 663.519531 352.546875 663.15625 C 352.515625 662.746094 352.542969 662.332031 352.550781 661.921875 C 352.566406 661.027344 352.585938 660.136719 352.601562 659.242188 Z M 352.609375 658.890625 " fill-opacity="1" fill-rule="evenodd"/></g><g clip-path="url(#324aae2d7c)"><g clip-path="url(#c5a0e11c37)"><path fill="#89d6b1" d="M 172.425781 117.761719 L 638.253906 117.761719 L 638.253906 524.769531 L 172.425781 524.769531 Z M 172.425781 117.761719 " fill-opacity="1" fill-rule="nonzero"/></g></g><path fill="#1a3428" d="M 610.707031 524.472656 L 610.707031 446.144531 C 610.707031 422.855469 591.757812 403.90625 568.46875 403.90625 C 545.179688 403.90625 526.230469 422.855469 526.230469 446.144531 L 526.230469 523.582031 C 526.230469 554.636719 500.96875 579.898438 469.914062 579.898438 C 438.863281 579.898438 413.597656 554.632812 413.597656 523.582031 L 413.597656 510.207031 L 399.519531 510.207031 L 399.519531 523.582031 C 399.519531 562.398438 431.097656 593.976562 469.914062 593.976562 C 508.730469 593.976562 540.3125 562.398438 540.3125 523.582031 L 540.3125 446.144531 C 540.3125 430.617188 552.941406 417.988281 568.46875 417.988281 C 583.996094 417.988281 596.628906 430.617188 596.628906 446.144531 L 596.628906 524.472656 C 584.496094 527.605469 575.507812 538.644531 575.507812 551.738281 C 575.507812 567.265625 588.140625 579.898438 603.667969 579.898438 C 619.195312 579.898438 631.828125 567.265625 631.828125 551.738281 C 631.824219 538.644531 622.839844 527.605469 610.707031 524.472656 Z M 603.667969 558.78125 C 599.78125 558.78125 596.628906 555.628906 596.628906 551.738281 C 596.628906 547.851562 599.78125 544.699219 603.667969 544.699219 C 607.554688 544.699219 610.707031 547.851562 610.707031 551.738281 C 610.707031 555.628906 607.554688 558.78125 603.667969 558.78125 Z M 603.667969 558.78125 " fill-opacity="1" fill-rule="nonzero"/><g clip-path="url(#f459f62e8e)"><path fill="#1a3428" d="M 460.058594 291.273438 C 468.957031 291.273438 476.578125 285.742188 479.683594 277.9375 C 488.648438 280.382812 495.257812 288.589844 495.257812 298.3125 L 495.257812 319.011719 L 509.335938 319.011719 L 509.335938 298.3125 C 509.335938 280.953125 496.699219 266.5 480.144531 263.640625 C 477.390625 255.171875 469.429688 249.035156 460.058594 249.035156 C 448.414062 249.035156 438.941406 258.511719 438.941406 270.15625 C 438.941406 281.800781 448.414062 291.273438 460.058594 291.273438 Z M 460.058594 291.273438 " fill-opacity="1" fill-rule="nonzero"/></g><g clip-path="url(#aeeb0d27c0)"><path fill="#1a3428" d="M 414.300781 496.128906 C 418.183594 496.128906 421.339844 492.96875 421.339844 489.085938 L 421.339844 473.03125 C 421.339844 469.648438 423.746094 466.742188 427.070312 466.113281 C 477.1875 456.632812 513.558594 412.707031 513.558594 361.671875 L 513.558594 333.511719 L 491.738281 333.511719 L 491.738281 360.671875 C 491.738281 415.070312 454.210938 445.601562 407.261719 446.257812 C 358.277344 446.941406 322.785156 413.117188 322.785156 361.671875 L 322.785156 333.511719 L 300.964844 333.511719 L 300.964844 361.671875 C 300.964844 412.707031 337.335938 456.632812 387.453125 466.113281 C 390.777344 466.742188 393.183594 469.648438 393.183594 473.03125 L 393.183594 489.085938 C 393.183594 492.96875 396.339844 496.128906 400.222656 496.128906 Z M 414.300781 496.128906 " fill-opacity="1" fill-rule="nonzero"/></g><g clip-path="url(#2af16a972c)"><path fill="#1a3428" d="M 319.265625 298.3125 C 319.265625 288.589844 325.875 280.382812 334.839844 277.9375 C 337.945312 285.742188 345.570312 291.273438 354.464844 291.273438 C 366.109375 291.273438 375.582031 281.800781 375.582031 270.15625 C 375.582031 258.511719 366.109375 249.035156 354.464844 249.035156 C 345.09375 249.035156 337.132812 255.171875 334.378906 263.640625 C 317.824219 266.5 305.1875 280.953125 305.1875 298.3125 L 305.1875 319.011719 L 319.265625 319.011719 Z M 319.265625 298.3125 " fill-opacity="1" fill-rule="nonzero"/></g><g clip-path="url(#b75e862656)"><path fill="#000000" d="M 504.355469 125.960938 C 445.800781 125.960938 413.21875 168.660156 402.300781 186.09375 C 396.332031 176.429688 389.285156 167.625 381.167969 159.679688 C 358.273438 137.316406 331.0625 125.960938 300.332031 125.960938 C 263.527344 125.960938 229.359375 141.101562 206.554688 167.691406 C 182.425781 195.691406 172.476562 234.082031 178.730469 275.902344 C 191.671875 363.332031 276.558594 434.738281 399.921875 515.210938 L 402.300781 516.710938 L 404.765625 515.210938 C 474.503906 469.78125 520.910156 434.121094 554.988281 399.871094 C 596.460938 358.050781 619.621094 317.460938 625.871094 275.902344 C 632.125 234.34375 622.261719 195.691406 598.046875 167.691406 C 575.328125 141.101562 541.074219 125.960938 504.355469 125.960938 Z M 616.980469 274.582031 C 610.992188 314.113281 588.625 353.117188 548.558594 393.53125 C 515.363281 426.902344 470.191406 461.679688 402.300781 505.96875 C 282.371094 427.519531 200.125 358.050781 187.621094 274.582031 C 181.898438 235.488281 190.96875 199.566406 213.421875 173.59375 C 234.554688 149.117188 266.167969 134.941406 300.332031 134.941406 C 328.597656 134.941406 353.695312 145.503906 374.914062 166.195312 C 390.589844 181.515625 398.160156 197.011719 398.25 197.277344 L 402.300781 205.816406 L 406.4375 197.277344 C 406.703125 196.574219 436.816406 134.941406 504.355469 134.941406 C 538.433594 134.941406 570.132812 149.117188 591.265625 173.59375 C 613.722656 199.566406 622.789062 235.488281 616.980469 274.582031 Z M 616.980469 274.582031 " fill-opacity="1" fill-rule="nonzero"/></g><path fill="#ffffff" d="M 305.863281 311.402344 C 328.71875 315.039062 352.40625 324.4375 370.136719 340.007812 C 384.203125 329.890625 393.632812 311.371094 393.632812 290.195312 C 393.632812 258.171875 372.101562 232.21875 345.539062 232.21875 C 318.976562 232.21875 297.445312 258.171875 297.445312 290.195312 C 297.445312 297.53125 298.589844 304.546875 300.652344 311.007812 C 302.375 311.003906 304.113281 311.121094 305.863281 311.402344 " fill-opacity="1" fill-rule="nonzero"/><path fill="#231f20" d="M 302.984375 311.085938 C 300.832031 304.628906 299.632812 297.578125 299.632812 290.195312 C 299.632812 259.433594 320.226562 234.410156 345.539062 234.410156 C 370.851562 234.410156 391.445312 259.433594 391.445312 290.195312 C 391.445312 310.835938 382.160156 328.878906 368.410156 338.527344 C 369.558594 339.488281 370.691406 340.46875 371.792969 341.480469 C 386.191406 330.886719 395.820312 311.863281 395.820312 290.195312 C 395.820312 257.015625 373.261719 230.023438 345.539062 230.023438 C 317.816406 230.023438 295.257812 257.015625 295.257812 290.195312 C 295.257812 297.542969 296.371094 304.585938 298.394531 311.105469 C 299.902344 310.984375 301.4375 310.980469 302.984375 311.085938 " fill-opacity="1" fill-rule="nonzero"/><path fill="#231f20" d="M 362.109375 290.195312 C 362.109375 301.222656 354.691406 310.167969 345.539062 310.167969 C 336.386719 310.167969 328.96875 301.222656 328.96875 290.195312 C 328.96875 279.160156 336.386719 270.214844 345.539062 270.214844 C 354.691406 270.214844 362.109375 279.160156 362.109375 290.195312 " fill-opacity="1" fill-rule="nonzero"/><path fill="#ffffff" d="M 342.40625 283.652344 C 340.769531 287.484375 336.863281 289.488281 333.679688 288.117188 C 330.5 286.75 329.25 282.535156 330.890625 278.703125 C 332.53125 274.871094 336.433594 272.871094 339.617188 274.238281 C 342.792969 275.601562 344.042969 279.816406 342.40625 283.652344 " fill-opacity="1" fill-rule="nonzero"/><path fill="#ffffff" d="M 435.945312 338.199219 C 438.59375 335.699219 441.847656 333.667969 445.457031 332.230469 C 444.925781 332.441406 444.566406 332.558594 444.285156 332.640625 L 444.171875 332.738281 L 444.285156 332.640625 C 441.96875 333.285156 447.582031 329.824219 444.285156 332.640625 C 445.300781 331.785156 446.316406 330.929688 447.324219 330.066406 C 450.308594 327.617188 453.375 324.609375 456.835938 322.8125 C 464.617188 318.773438 471.945312 317.199219 480.332031 316.117188 C 485.875 314.730469 491.40625 313.710938 496.9375 313.0625 C 498.199219 312.835938 499.464844 312.613281 500.742188 312.433594 C 503.054688 312.101562 505.296875 311.863281 507.511719 311.726562 C 509.722656 305.066406 510.957031 297.804688 510.957031 290.195312 C 510.957031 258.171875 489.425781 232.21875 462.863281 232.21875 C 436.300781 232.21875 414.769531 258.171875 414.769531 290.195312 C 414.769531 310.179688 423.175781 327.777344 435.945312 338.199219 " fill-opacity="1" fill-rule="nonzero"/><path fill="#231f20" d="M 434.429688 339.761719 C 435.398438 338.675781 436.46875 337.660156 437.636719 336.730469 C 425.195312 326.742188 416.957031 309.625 416.957031 290.195312 C 416.957031 259.433594 437.550781 234.410156 462.863281 234.410156 C 488.175781 234.410156 508.769531 259.433594 508.769531 290.195312 C 508.769531 297.898438 507.460938 305.238281 505.125 311.925781 C 506.707031 311.777344 508.269531 311.675781 509.820312 311.625 C 511.953125 304.960938 513.144531 297.742188 513.144531 290.195312 C 513.144531 257.015625 490.585938 230.023438 462.863281 230.023438 C 435.136719 230.023438 412.582031 257.015625 412.582031 290.195312 C 412.582031 310.746094 421.253906 328.902344 434.429688 339.761719 " fill-opacity="1" fill-rule="nonzero"/><path fill="#231f20" d="M 479.433594 290.195312 C 479.433594 301.222656 472.011719 310.167969 462.863281 310.167969 C 453.710938 310.167969 446.292969 301.222656 446.292969 290.195312 C 446.292969 279.160156 453.710938 270.214844 462.863281 270.214844 C 472.011719 270.214844 479.433594 279.160156 479.433594 290.195312 " fill-opacity="1" fill-rule="nonzero"/><path fill="#ffffff" d="M 459.730469 283.652344 C 458.09375 287.484375 454.1875 289.488281 451.003906 288.117188 C 447.824219 286.75 446.574219 282.535156 448.214844 278.703125 C 449.851562 274.871094 453.757812 272.871094 456.941406 274.238281 C 460.117188 275.601562 461.367188 279.816406 459.730469 283.652344 " fill-opacity="1" fill-rule="nonzero"/><g clip-path="url(#1298d9a1e1)"><path fill="#231f20" d="M 272.417969 310.796875 C 282.054688 308.308594 292.09375 307.738281 302.066406 308.136719 C 312.042969 308.613281 322.035156 310.3125 331.648438 313.421875 C 341.253906 316.523438 350.484375 321.097656 358.558594 327.242188 C 366.605469 333.382812 373.496094 341.09375 378.042969 349.953125 C 371.035156 342.925781 363.53125 336.867188 355.339844 332 C 347.179688 327.097656 338.445312 323.320312 329.40625 320.378906 C 320.359375 317.449219 311.003906 315.347656 301.488281 313.839844 C 291.957031 312.316406 282.300781 311.347656 272.417969 310.796875 " fill-opacity="1" fill-rule="nonzero"/></g><g clip-path="url(#3ab5395df8)"><path fill="#231f20" d="M 531.800781 310.796875 C 521.921875 311.347656 512.261719 312.316406 502.734375 313.839844 C 493.21875 315.347656 483.859375 317.449219 474.8125 320.378906 C 465.773438 323.320312 457.039062 327.097656 448.882812 332 C 440.6875 336.867188 433.1875 342.925781 426.179688 349.953125 C 430.726562 341.09375 437.617188 333.382812 445.664062 327.242188 C 453.734375 321.097656 462.96875 316.523438 472.570312 313.421875 C 482.183594 310.3125 492.175781 308.613281 502.15625 308.136719 C 512.128906 307.738281 522.167969 308.308594 531.800781 310.796875 " fill-opacity="1" fill-rule="nonzero"/></g><path fill="#231f20" d="M 286.074219 310.527344 C 285.960938 307.632812 286.109375 305.023438 286.328125 302.320312 C 286.554688 299.644531 286.898438 296.996094 287.339844 294.371094 C 288.222656 289.125 289.5 283.980469 291.125 278.988281 C 290.355469 284.183594 289.96875 289.40625 289.976562 294.59375 C 289.980469 297.1875 290.082031 299.769531 290.292969 302.332031 C 290.511719 304.863281 290.824219 307.496094 291.320312 309.808594 L 286.074219 310.527344 " fill-opacity="1" fill-rule="nonzero"/><path fill="#231f20" d="M 515.476562 309.808594 C 515.96875 307.496094 516.289062 304.863281 516.503906 302.332031 C 516.714844 299.769531 516.816406 297.1875 516.820312 294.59375 C 516.828125 289.40625 516.441406 284.183594 515.671875 278.988281 C 517.300781 283.980469 518.578125 289.125 519.457031 294.371094 C 519.898438 296.996094 520.242188 299.644531 520.472656 302.320312 C 520.6875 305.023438 520.839844 307.632812 520.71875 310.527344 L 515.476562 309.808594 " fill-opacity="1" fill-rule="nonzero"/><g clip-path="url(#c12b47817c)"><path fill="#231f20" d="M 317.1875 226.078125 C 318.179688 223.148438 319.84375 220.542969 321.734375 218.128906 C 323.65625 215.730469 325.910156 213.578125 328.433594 211.707031 C 333.46875 207.988281 339.71875 205.484375 346.273438 205.007812 C 352.816406 204.488281 359.4375 206.074219 364.933594 209.113281 C 370.4375 212.171875 375 216.457031 378.078125 221.742188 C 372.316406 219.738281 367.136719 217.707031 361.992188 216.488281 C 356.871094 215.222656 351.917969 214.722656 347.015625 215.082031 C 342.117188 215.4375 337.238281 216.667969 332.3125 218.605469 C 327.363281 220.53125 322.457031 223.082031 317.1875 226.078125 " fill-opacity="1" fill-rule="nonzero"/></g><path fill="#231f20" d="M 432.4375 223.15625 C 435.894531 218.375 440.796875 214.820312 446.238281 212.34375 C 451.703125 209.902344 457.941406 208.6875 464.167969 209.285156 C 470.390625 209.84375 476.425781 212.304688 481.21875 216.03125 C 486.019531 219.761719 489.703125 224.589844 491.890625 230.023438 C 487.015625 226.796875 482.484375 223.785156 477.769531 221.625 C 473.078125 219.425781 468.296875 218.074219 463.378906 217.605469 C 458.464844 217.128906 453.410156 217.535156 448.265625 218.574219 C 443.105469 219.609375 437.910156 221.199219 432.4375 223.15625 " fill-opacity="1" fill-rule="nonzero"/></svg>