<svg xmlns="http://www.w3.org/2000/svg" xmlns:xlink="http://www.w3.org/1999/xlink" width="1080" zoomAndPan="magnify" viewBox="0 0 810 809.999993" height="1080" preserveAspectRatio="xMidYMid meet" version="1.0"><defs><clipPath id="0a3ddb689c"><path d="M 400 453 L 752.195312 453 L 752.195312 645 L 400 645 Z M 400 453 " clip-rule="nonzero"/></clipPath><clipPath id="2085898394"><path d="M 334 592 L 752.195312 592 L 752.195312 720 L 334 720 Z M 334 592 " clip-rule="nonzero"/></clipPath></defs><path fill="#1a3428" d="M 705.699219 189.460938 C 703.847656 175.085938 700.089844 160.925781 694.472656 147.410156 C 683.855469 121.933594 666.675781 98.75 643.238281 80.675781 C 571.59375 25.421875 468.707031 38.679688 413.417969 110.324219 L 255.558594 314.960938 C 301.183594 321.652344 355.675781 346.113281 407.613281 386.15625 C 418.453125 394.511719 428.625 403.152344 438.164062 411.988281 C 449.957031 408.605469 462.363281 405.769531 475.273438 403.566406 C 460.734375 388.710938 444.597656 374.421875 427.089844 360.9375 C 389.1875 331.664062 349.074219 309.476562 310.429688 296.019531 L 438.664062 129.804688 C 460.191406 101.910156 491.3125 84.058594 526.257812 79.527344 C 561.230469 75.027344 595.859375 84.40625 623.753906 105.925781 C 641.996094 119.992188 656.246094 138.574219 665.015625 159.65625 C 669.511719 170.492188 672.574219 181.910156 674.074219 193.546875 C 678.597656 228.527344 669.195312 263.148438 647.671875 291.046875 L 564.769531 398.5 C 577.589844 399.164062 590.117188 400.414062 602.203125 402.164062 L 672.921875 310.527344 C 700.535156 274.6875 711.054688 231.070312 705.699219 189.460938 " fill-opacity="1" fill-rule="nonzero"/><path fill="#1a3428" d="M 372.09375 700.4375 C 316.710938 771.578125 214.203125 784.617188 142.71875 729.492188 C 71.074219 674.203125 57.808594 571.3125 113.066406 499.667969 L 235.054688 341.519531 C 275.230469 342.765625 332.046875 364.128906 390.078125 408.890625 C 396.011719 413.453125 401.683594 418.074219 407.136719 422.734375 C 348.214844 446.964844 310.429688 486.878906 310.429688 532.855469 L 310.429688 608.105469 C 310.429688 644.136719 333.675781 676.464844 372.09375 700.4375 " fill-opacity="1" fill-rule="nonzero"/><g clip-path="url(#0a3ddb689c)"><path fill="#1a3428" d="M 468.320312 575.679688 L 688.417969 453.726562 C 727.539062 474.035156 752.21875 502.246094 752.21875 532.855469 C 752.21875 593.183594 656.472656 644.167969 543.125 644.167969 C 501.667969 644.167969 462.644531 637.347656 429.742188 625.742188 C 419.285156 622.070312 409.464844 617.894531 400.371094 613.335938 L 468.320312 575.679688 " fill-opacity="1" fill-rule="nonzero"/></g><path fill="#1a3428" d="M 334.054688 532.855469 C 334.054688 531.835938 334.085938 530.820312 334.152344 529.796875 C 334.183594 529.257812 334.214844 528.714844 334.28125 528.171875 C 334.308594 527.59375 334.34375 527.027344 334.4375 526.480469 C 334.5 525.585938 334.628906 524.726562 334.789062 523.867188 C 334.886719 523.132812 335.011719 522.398438 335.171875 521.664062 C 335.332031 520.738281 335.554688 519.816406 335.777344 518.925781 C 336.0625 517.773438 336.386719 516.628906 336.734375 515.511719 C 337.019531 514.523438 337.339844 513.566406 337.722656 512.578125 C 337.820312 512.261719 337.949219 511.914062 338.074219 511.589844 C 338.359375 510.828125 338.679688 510.03125 339.03125 509.230469 C 339.347656 508.46875 339.667969 507.730469 340.015625 507.003906 C 340.59375 505.785156 341.164062 504.613281 341.835938 503.429688 C 342.699219 501.742188 343.683594 500.046875 344.769531 498.386719 C 345.183594 497.722656 345.632812 497.019531 346.109375 496.351562 C 348.5 492.8125 351.242188 489.335938 354.300781 485.921875 C 355.035156 485.09375 355.832031 484.269531 356.660156 483.402344 C 356.660156 483.371094 356.695312 483.347656 356.757812 483.28125 C 357.714844 482.289062 358.671875 481.335938 359.691406 480.347656 C 360.519531 479.542969 361.347656 478.75 362.242188 477.957031 C 362.878906 477.382812 363.515625 476.804688 364.1875 476.230469 C 364.886719 475.589844 365.621094 474.957031 366.386719 474.316406 C 367.375 473.492188 368.363281 472.664062 369.417969 471.859375 C 373.148438 468.894531 377.164062 466.027344 381.402344 463.257812 C 382.515625 462.492188 383.699219 461.757812 384.882812 461.050781 C 386.253906 460.191406 387.625 459.363281 389.058594 458.539062 C 390.460938 457.707031 391.894531 456.878906 393.359375 456.082031 C 394.828125 455.289062 396.292969 454.488281 397.824219 453.691406 C 399.324219 452.921875 400.859375 452.125 402.382812 451.398438 C 403.183594 450.976562 403.976562 450.597656 404.804688 450.214844 C 406.335938 449.480469 407.898438 448.746094 409.496094 448.042969 C 410.324219 447.660156 411.183594 447.28125 412.042969 446.898438 C 413.605469 446.226562 415.234375 445.5625 416.863281 444.890625 C 420.179688 443.519531 423.589844 442.214844 427.058594 440.933594 C 436.816406 437.367188 447.148438 434.242188 457.960938 431.59375 C 458.375 431.496094 458.789062 431.402344 459.234375 431.308594 C 461.753906 430.667969 464.304688 430.09375 466.851562 429.554688 C 468.609375 429.167969 470.359375 428.820312 472.113281 428.46875 C 472.53125 428.375 472.980469 428.277344 473.421875 428.210938 C 474.570312 427.960938 475.71875 427.734375 476.902344 427.546875 C 477.183594 427.480469 477.46875 427.417969 477.757812 427.386719 C 479.890625 427.003906 482.03125 426.621094 484.195312 426.300781 C 484.996094 426.144531 485.824219 426.015625 486.652344 425.886719 C 489.238281 425.472656 491.820312 425.125 494.433594 424.765625 C 494.496094 424.742188 494.59375 424.742188 494.660156 424.742188 C 510.285156 422.667969 526.507812 421.582031 543.125 421.582031 C 544.394531 421.582031 545.640625 421.582031 546.914062 421.613281 C 547.296875 421.613281 547.675781 421.613281 548.066406 421.648438 C 550.457031 421.648438 552.816406 421.710938 555.175781 421.808594 C 555.9375 421.808594 556.707031 421.835938 557.46875 421.867188 C 560.433594 421.960938 563.433594 422.125 566.367188 422.3125 C 569.332031 422.503906 572.265625 422.699219 575.167969 422.953125 C 575.992188 423.015625 576.789062 423.082031 577.589844 423.175781 C 580.203125 423.429688 582.785156 423.71875 585.371094 424.003906 C 612.949219 427.132812 638.707031 433.285156 661.347656 441.738281 L 492.457031 535.3125 L 376.84375 599.367188 C 350.09375 580.6875 334.054688 557.535156 334.054688 532.855469 " fill-opacity="1" fill-rule="nonzero"/><g clip-path="url(#2085898394)"><path fill="#1a3428" d="M 752.21875 592.992188 L 752.21875 608.105469 C 752.21875 668.425781 656.472656 719.378906 543.125 719.378906 C 481.804688 719.378906 425.601562 704.460938 386.980469 681.214844 C 383.222656 678.953125 379.621094 676.59375 376.238281 674.203125 C 375.21875 673.5 374.230469 672.769531 373.242188 672.035156 C 372.253906 671.300781 371.296875 670.566406 370.339844 669.835938 C 364.503906 665.273438 359.277344 660.492188 354.75 655.546875 C 354.113281 654.851562 353.472656 654.148438 352.867188 653.410156 C 351.847656 652.265625 350.890625 651.117188 349.996094 649.941406 C 349.390625 649.171875 348.820312 648.40625 348.242188 647.640625 C 343.910156 641.808594 340.53125 635.75 338.136719 629.53125 C 337.882812 628.859375 337.625 628.1875 337.40625 627.523438 C 337.117188 626.695312 336.828125 625.832031 336.574219 625.003906 C 336.542969 624.84375 336.476562 624.65625 336.414062 624.460938 C 336.191406 623.664062 335.96875 622.867188 335.777344 622.039062 C 335.554688 621.144531 335.332031 620.222656 335.171875 619.296875 C 334.980469 618.371094 334.824219 617.449219 334.695312 616.523438 C 334.535156 615.601562 334.4375 614.667969 334.34375 613.71875 C 334.28125 613.050781 334.214844 612.378906 334.183594 611.679688 C 334.085938 610.496094 334.054688 609.289062 334.054688 608.105469 L 334.054688 592.992188 C 336.511719 595.925781 339.15625 598.792969 341.964844 601.597656 C 343.175781 602.78125 344.386719 603.988281 345.660156 605.136719 C 348.277344 607.5625 350.988281 609.921875 353.855469 612.246094 C 354.71875 612.921875 355.578125 613.625 356.441406 614.257812 C 357.363281 615.023438 358.289062 615.722656 359.242188 616.429688 C 359.308594 616.460938 359.371094 616.523438 359.4375 616.550781 C 361.03125 617.765625 362.625 618.914062 364.28125 620.027344 C 365.972656 621.210938 367.691406 622.359375 369.445312 623.472656 C 369.480469 623.503906 369.511719 623.535156 369.542969 623.535156 C 371.167969 624.589844 372.796875 625.640625 374.484375 626.632812 C 374.996094 626.945312 375.472656 627.230469 375.984375 627.523438 C 377.101562 628.222656 378.25 628.859375 379.398438 629.5 C 380.511719 630.164062 381.660156 630.804688 382.808594 631.414062 C 384.304688 632.242188 385.839844 633.066406 387.363281 633.804688 C 388.765625 634.566406 390.207031 635.304688 391.640625 636 C 392.054688 636.195312 392.4375 636.414062 392.851562 636.578125 C 394.285156 637.28125 395.75 637.976562 397.25 638.683594 C 398.71875 639.347656 400.214844 640.019531 401.714844 640.660156 C 403.214844 641.324219 404.714844 641.964844 406.238281 642.605469 C 407.453125 643.117188 408.695312 643.625 409.976562 644.105469 C 411.410156 644.703125 412.84375 645.246094 414.277344 645.789062 C 450.941406 659.722656 495.101562 667.761719 543.125 667.761719 C 636.128906 667.761719 714.726562 637.628906 752.21875 592.992188 " fill-opacity="1" fill-rule="nonzero"/></g></svg>